<?xml version="1.0" encoding="UTF-8" standalone="no"?>
<svg
   version="1.0"
   width="263.91205pt"
   height="96.677895pt"
   viewBox="0 0 263.91205 96.677895"
   preserveAspectRatio="xMidYMid"
   id="svg124"
   sodipodi:docname="banner.svg"
   inkscape:version="1.3.2 (091e20e, 2023-11-25, custom)"
   xmlns:inkscape="http://www.inkscape.org/namespaces/inkscape"
   xmlns:sodipodi="http://sodipodi.sourceforge.net/DTD/sodipodi-0.dtd"
   xmlns="http://www.w3.org/2000/svg"
   xmlns:svg="http://www.w3.org/2000/svg">
  <defs
     id="defs124" />
  <sodipodi:namedview
     id="namedview124"
     pagecolor="#ffffff"
     bordercolor="#000000"
     borderopacity="0.25"
     inkscape:showpageshadow="2"
     inkscape:pageopacity="0.0"
     inkscape:pagecheckerboard="0"
     inkscape:deskcolor="#d1d1d1"
     inkscape:document-units="pt"
     showgrid="false"
     inkscape:zoom="1.5273438"
     inkscape:cx="173.8312"
     inkscape:cy="348.31712"
     inkscape:window-width="1278"
     inkscape:window-height="1360"
     inkscape:window-x="-7"
     inkscape:window-y="0"
     inkscape:window-maximized="1"
     inkscape:current-layer="g124" />
  <metadata
     id="metadata1">
Created by potrace 1.10, written by Peter Selinger 2001-2011
</metadata>
  <g
     transform="matrix(0.05,0,0,-0.05,-23.680923,563.57673)"
     fill="#000000"
     stroke="none"
     id="g124">
    <path
       d="m 1509,11258 c -38,-61 -215,-598 -217,-658 -4,-130 65,-92 127,70 52,138 53,140 127,140 h 74 v -111 c 0,-159 114,-266 122,-115 6,114 -9,318 -25,346 -7,11 -23,56 -37,100 -52,168 -138,282 -171,228 z m 71,-246 c 0,-16 5,-43 12,-60 9,-24 0,-32 -38,-32 -48,0 -49,3 -28,60 24,63 54,80 54,32 z"
       id="path1" />
    <path
       d="m 1004,11215 c -13,-25 -33,-94 -44,-155 -11,-60 -65,-202 -122,-315 -131,-263 -128,-269 96,-252 188,13 246,32 246,77 0,56 -106,71 -267,38 l -58,-12 60,87 c 78,115 139,299 148,445 7,127 -19,166 -59,87 z"
       id="path2" />
    <path
       d="m 2990,11165 c -7,-41 -43,-160 -80,-265 -168,-478 -168,-474 13,-464 178,10 237,37 237,107 v 60 l -110,-14 c -60,-7 -110,-10 -110,-6 0,4 36,111 80,237 82,239 94,316 59,381 -34,64 -76,46 -89,-36 z"
       id="path3" />
    <path
       d="m 4140,11167 c -38,-27 -92,-71 -120,-97 l -50,-47 -59,78 c -127,170 -166,104 -163,-273 2,-305 16,-368 82,-368 40,0 44,33 39,280 -4,177 0,223 18,200 58,-75 153,-98 153,-38 0,23 126,137 141,128 6,-4 4,-64 -5,-134 -49,-414 -37,-544 48,-511 29,11 35,66 68,610 13,217 -26,261 -152,172 z"
       id="path4" />
    <path
       d="m 4772,11170 c -7,-27 -40,-81 -74,-120 l -62,-70 -100,90 c -157,141 -156,142 -156,-261 0,-294 5,-352 30,-362 75,-29 95,31 86,257 -5,119 -5,216 0,216 4,0 35,-23 68,-51 60,-49 116,-42 116,16 0,20 58,73 82,74 6,1 7,-114 2,-255 -9,-275 15,-354 86,-282 30,31 50,729 22,775 -26,42 -87,26 -100,-27 z"
       id="path5" />
    <path
       d="m 5280,11200 c -27,-9 -92,-17 -144,-18 -113,-2 -108,9 -136,-322 -12,-137 -25,-272 -31,-300 -19,-101 25,-121 230,-107 223,16 303,70 242,166 -13,21 -25,23 -44,7 -15,-11 -88,-25 -162,-31 l -135,-10 v 95 95 l 90,14 c 173,26 201,158 29,137 -98,-11 -153,49 -74,81 20,8 20,10 0,11 -67,5 -21,62 50,62 96,1 175,41 175,89 0,45 -22,52 -90,31 z"
       id="path6" />
    <path
       d="m 2755,11188 c -7,-6 -78,-18 -157,-25 l -146,-13 -5,-130 c -10,-260 -23,-437 -36,-475 -7,-25 3,-57 29,-87 56,-67 100,-11 101,131 0,92 6,105 65,141 86,55 88,122 4,114 -104,-10 -78,167 27,185 210,38 274,79 221,144 -23,28 -82,36 -103,15 z"
       id="path7" />
    <path
       d="m 3570,11138 c -44,-9 -109,-11 -144,-5 -128,22 -171,-111 -175,-533 l -1,-130 91,-6 c 131,-8 247,34 256,93 10,76 -21,91 -136,63 -121,-29 -118,-31 -106,65 8,68 15,75 69,75 65,0 176,56 176,89 -1,55 -32,69 -111,50 -43,-10 -85,-18 -92,-19 -7,0 -16,30 -21,68 l -7,67 75,-10 c 58,-8 92,1 146,37 120,83 112,121 -20,96 z"
       id="path8" />
    <path
       d="m 3772.285,10396.899 c -40,-41 14,-181 59,-152 42,28 51,99 17,133 -34,35 -55,40 -76,19 z"
       id="path115" />
    <path
       d="m 2877.3754,10383.176 c -6,-23 -18,-37 -27,-32 -8,6 -46,-28 -82,-75 -37,-47 -88,-106 -113,-132 l -47,-47 -52,47 c -29,26 -71,68 -94,94 -62,69 -144,43 -170,-54 -35,-132 -33,-558.9998 2,-594.9998 71,-71 97,10 97,298 v 262.9998 l 48,-71 c 115,-168.9998 241,-163.9998 349,13 75,123 75,122 57,-204.9998 -17,-313 -4,-395 61,-382 74,14 92,897.9998 19,911.9998 -24,5 -41,-7 -48,-34 z"
       id="path116" />
    <path
       d="m 683.37541,10348.176 c -330,-179 -250,-809.9998 96,-752.9998 219,35 387.99999,393 291.99999,617.9998 -63,147 -246.99999,212 -387.99999,135 z m 283,-160 c 81.99999,-112 -21,-362.9998 -175,-426.9998 -164,-68 -266,175 -149,354.9998 77,118 261,158 324,72 z"
       id="path117" />
    <path
       d="m 1305.3754,10367.176 c -5,-9 -43,-128 -84,-266 -41,-136.9998 -87,-273.9998 -102,-303.9998 -74,-144 -15,-197 202,-183 142,9 165,16 205,64 88,103 -4,144 -212,93 l -67,-16 13,68 c 7,37 36,142 63,230.9998 51,165 57,308 15,322 -13,4 -28,0 -33,-9 z"
       id="path118" />
    <path
       d="m 2078.3754,10256.176 c -31,-36 -77,-92 -101,-125 l -44,-60 -117,116 c -83,82 -128,112 -151,103 -65,-25 -17,-128 114,-243 l 90,-78.9998 -89,-113 c -87,-110 -107,-175 -71,-232 29,-45 70,-14 162,121 48,70 137,194 198,275.9998 149,199 147,197 133,252 -16,67 -56,61 -124,-16 z"
       id="path119" />
    <path
       d="m 3201.3754,10297.176 c -61,-34 -60,-30 -60,-386.9998 0,-295 4,-337 34,-356 58,-37 76,7 81,195 l 5,176 92,-10 c 248,-30 381,106.9998 269,276.9998 -75,114 -304,171 -421,105 z m 292,-150 c 70,-42 73,-57 13,-73 -160,-43 -317,18 -242,94 26,26 172,12 229,-21 z"
       id="path120" />
    <path
       d="m 4165.3754,10163.176 c -231,-213.9998 -194,-662.9998 59,-710.9998 45,-9 66,-26 75,-62 19,-75 92,-67 92,10 0,33 15,70 36,85 231,168 263,463 72,650.9998 -139,137 -209,142 -334,27 z m 176,-82 c 7,-11 44,-34 81,-49 87,-35.9998 117,-106.9998 90,-208.9998 -23,-82 -140,-209 -155,-167 -36,99 -118,91 -130,-11 l -6,-54 -37,55 c -55,81 -65,214 -23,297 65,127.9998 147,190.9998 180,137.9998 z"
       id="path121" />
    <path
       d="m 4731.3754,10194.176 c 0,-4 -9,-55 -20,-113 -45,-235.9998 26,-545.9998 132,-571.9998 212,-53 441,568.9998 247,671.9998 -21,12 -40,19 -41,16 -14,-34 -11,-118 3,-127 61,-37 -87,-408.9998 -163,-408.9998 -57,0 -66,36 -72,270 -2,120.9998 -5,230.9998 -5,244.9998 -1,21 -81,39 -81,18 z"
       id="path122" />
    <path
       d="m 5485.3754,10179.176 c -74,-6 -144,-20 -155,-31 -60,-60 -108,-517.9998 -61,-574.9998 63,-75 406,-23 419,64 13,92 -5,104 -109,72 -169,-50 -228,-40 -228,40 0,68 1,69 91,69 105,0 149,28 149,97 0,46 -5,49 -105,43 -94,-5 -106,-1 -111,37 -6,38.9998 3,41.9998 146,43.9998 185,3 230,23 230,103 0,66 24,62 -266,37 z"
       id="path123" />
    <path
       d="m 3763.3754,10146.176 c -22,-69 -20,-504.9998 2,-526.9998 84,-84 155,330 87,508.9998 -23,60 -73,70 -89,18 z"
       id="path124" />
  </g>
</svg>
