<?xml version="1.0" encoding="UTF-8" standalone="no"?>
<svg
   version="1.0"
   width="300.000000pt"
   height="576.000000pt"
   viewBox="0 0 300.000000 576.000000"
   preserveAspectRatio="xMidYMid meet"
   id="svg124"
   sodipodi:docname="ZXyLmw01.svg"
   inkscape:version="1.3.2 (091e20e, 2023-11-25, custom)"
   xmlns:inkscape="http://www.inkscape.org/namespaces/inkscape"
   xmlns:sodipodi="http://sodipodi.sourceforge.net/DTD/sodipodi-0.dtd"
   xmlns="http://www.w3.org/2000/svg"
   xmlns:svg="http://www.w3.org/2000/svg">
  <defs
     id="defs124" />
  <sodipodi:namedview
     id="namedview124"
     pagecolor="#ffffff"
     bordercolor="#000000"
     borderopacity="0.25"
     inkscape:showpageshadow="2"
     inkscape:pageopacity="0.0"
     inkscape:pagecheckerboard="0"
     inkscape:deskcolor="#d1d1d1"
     inkscape:document-units="pt"
     showgrid="false"
     inkscape:zoom="1.5273438"
     inkscape:cx="205.25831"
     inkscape:cy="374.50639"
     inkscape:window-width="1278"
     inkscape:window-height="1360"
     inkscape:window-x="-7"
     inkscape:window-y="0"
     inkscape:window-maximized="0"
     inkscape:current-layer="g124" />
  <metadata
     id="metadata1">
Created by potrace 1.10, written by Peter Selinger 2001-2011
</metadata>
  <g
     transform="translate(0.000000,576.000000) scale(0.050000,-0.050000)"
     fill="#000000"
     stroke="none"
     id="g124">
    <path
       d="M1509 11258 c-38 -61 -215 -598 -217 -658 -4 -130 65 -92 127 70 52 138 53 140 127 140 l74 0 0 -111 c0 -159 114 -266 122 -115 6 114 -9 318 -25 346 -7 11 -23 56 -37 100 -52 168 -138 282 -171 228z m71 -246 c0 -16 5 -43 12 -60 9 -24 0 -32 -38 -32 -48 0 -49 3 -28 60 24 63 54 80 54 32z"
       id="path1" />
    <path
       d="M1004 11215 c-13 -25 -33 -94 -44 -155 -11 -60 -65 -202 -122 -315 -131 -263 -128 -269 96 -252 188 13 246 32 246 77 0 56 -106 71 -267 38 l-58 -12 60 87 c78 115 139 299 148 445 7 127 -19 166 -59 87z"
       id="path2" />
    <path
       d="M2990 11165 c-7 -41 -43 -160 -80 -265 -168 -478 -168 -474 13 -464 178 10 237 37 237 107 l0 60 -110 -14 c-60 -7 -110 -10 -110 -6 0 4 36 111 80 237 82 239 94 316 59 381 -34 64 -76 46 -89 -36z"
       id="path3" />
    <path
       d="M4140 11167 c-38 -27 -92 -71 -120 -97 l-50 -47 -59 78 c-127 170 -166 104 -163 -273 2 -305 16 -368 82 -368 40 0 44 33 39 280 -4 177 0 223 18 200 58 -75 153 -98 153 -38 0 23 126 137 141 128 6 -4 4 -64 -5 -134 -49 -414 -37 -544 48 -511 29 11 35 66 68 610 13 217 -26 261 -152 172z"
       id="path4" />
    <path
       d="M4772 11170 c-7 -27 -40 -81 -74 -120 l-62 -70 -100 90 c-157 141 -156 142 -156 -261 0 -294 5 -352 30 -362 75 -29 95 31 86 257 -5 119 -5 216 0 216 4 0 35 -23 68 -51 60 -49 116 -42 116 16 0 20 58 73 82 74 6 1 7 -114 2 -255 -9 -275 15 -354 86 -282 30 31 50 729 22 775 -26 42 -87 26 -100 -27z"
       id="path5" />
    <path
       d="M5280 11200 c-27 -9 -92 -17 -144 -18 -113 -2 -108 9 -136 -322 -12 -137 -25 -272 -31 -300 -19 -101 25 -121 230 -107 223 16 303 70 242 166 -13 21 -25 23 -44 7 -15 -11 -88 -25 -162 -31 l-135 -10 0 95 0 95 90 14 c173 26 201 158 29 137 -98 -11 -153 49 -74 81 20 8 20 10 0 11 -67 5 -21 62 50 62 96 1 175 41 175 89 0 45 -22 52 -90 31z"
       id="path6" />
    <path
       d="M2755 11188 c-7 -6 -78 -18 -157 -25 l-146 -13 -5 -130 c-10 -260 -23 -437 -36 -475 -7 -25 3 -57 29 -87 56 -67 100 -11 101 131 0 92 6 105 65 141 86 55 88 122 4 114 -104 -10 -78 167 27 185 210 38 274 79 221 144 -23 28 -82 36 -103 15z"
       id="path7" />
    <path
       d="M3570 11138 c-44 -9 -109 -11 -144 -5 -128 22 -171 -111 -175 -533 l-1 -130 91 -6 c131 -8 247 34 256 93 10 76 -21 91 -136 63 -121 -29 -118 -31 -106 65 8 68 15 75 69 75 65 0 176 56 176 89 -1 55 -32 69 -111 50 -43 -10 -85 -18 -92 -19 -7 0 -16 30 -21 68 l-7 67 75 -10 c58 -8 92 1 146 37 120 83 112 121 -20 96z"
       id="path8" />
    <path
       d="M3605 9985 c-2 -275 -60 -520 -261 -1105 -74 -215 -117 -311 -289 -640 -37 -72 -74 -153 -81 -180 -13 -47 -17 -44 -75 56 -129 223 -294 253 -297 54 -2 -147 -61 -286 -211 -500 -305 -433 -341 -559 -340 -1170 1 -494 17 -607 88 -625 51 -14 62 56 40 245 -44 381 -4 984 76 1122 19 34 50 88 68 120 75 136 183 298 199 298 32 0 183 330 185 405 3 89 33 96 92 22 31 -40 41 -78 38 -152 -4 -123 25 -145 113 -88 59 39 102 108 223 358 20 41 42 75 49 75 7 0 25 29 38 65 14 36 51 119 82 185 56 120 198 533 278 806 64 219 104 499 89 613 l-14 99 69 -59 c78 -67 103 -109 166 -282 119 -328 50 -1311 -120 -1700 -15 -35 -33 -98 -40 -140 -18 -106 -90 -329 -121 -374 -36 -52 -15 -93 49 -93 41 0 96 43 237 188 l184 189 22 -83 c24 -86 16 -229 -17 -315 -63 -161 109 -126 180 37 23 52 59 135 82 184 25 56 44 150 50 246 l9 156 48 -116 c55 -135 64 -178 85 -406 35 -384 -15 -761 -189 -1430 -17 -66 -37 -142 -43 -170 -18 -75 -89 -150 -146 -153 -27 -1 -79 -9 -115 -17 l-65 -15 33 98 c18 53 48 133 67 177 112 255 142 613 74 880 -28 110 -52 184 -52 165 -1 -19 -9 -35 -17 -35 -8 0 -36 -45 -61 -99 -33 -73 -85 -132 -196 -222 -148 -121 -191 -140 -151 -64 74 137 35 579 -42 484 -14 -17 -53 -48 -88 -70 -115 -72 -376 -245 -464 -309 -135 -97 -133 -98 -172 64 -18 80 -50 169 -69 196 -20 28 -51 79 -69 115 -61 118 -94 79 -192 -225 -25 -77 -54 -167 -65 -200 -36 -104 -47 -316 -38 -676 5 -178 10 -198 51 -225 67 -44 150 5 98 57 -41 41 -48 617 -9 784 47 207 116 416 129 394 8 -11 19 -64 26 -117 7 -54 19 -106 27 -117 8 -11 20 -54 26 -94 18 -119 70 -174 138 -148 31 11 56 28 56 36 0 8 38 35 85 58 47 24 90 49 95 56 6 8 79 56 163 108 83 51 176 125 206 164 70 93 89 88 68 -15 -10 -47 -26 -130 -36 -185 -30 -163 -45 -219 -65 -244 -24 -30 -2 -106 30 -106 140 1 504 316 482 417 l-11 53 27 -50 c20 -38 23 -86 10 -200 -9 -82 -19 -185 -24 -228 -8 -83 -45 -262 -65 -312 -6 -16 -23 -66 -36 -110 -13 -44 -37 -110 -52 -147 -24 -58 -23 -69 5 -90 17 -12 28 -33 24 -45 -17 -51 47 -69 99 -28 62 48 95 51 95 9 0 -29 3 -29 31 0 18 17 54 36 80 43 31 8 49 27 49 52 0 29 11 37 45 32 31 -4 43 -17 39 -43 -4 -24 2 -32 16 -23 13 8 18 27 11 43 -6 17 -1 48 11 70 21 39 114 384 126 467 3 22 16 72 28 110 234 729 80 1820 -257 1820 -45 0 -46 -4 -18 -106 24 -85 -4 -391 -45 -489 -22 -53 -23 -50 -39 64 -36 262 -131 419 -179 296 -46 -118 -103 -221 -160 -292 -67 -80 -113 -99 -76 -30 12 23 48 129 78 235 31 106 71 232 88 280 154 421 166 1380 22 1663 -87 170 -277 359 -363 359 -37 0 -40 -14 -42 -215z"
       id="path9" />
    <path
       d="M4341 9601 c-71 -41 -133 -86 -137 -100 -17 -50 44 -60 111 -18 91 56 99 38 33 -80 -84 -149 -27 -205 127 -123 41 22 85 40 97 40 41 0 126 81 116 109 -20 50 -65 50 -157 -2 -108 -60 -110 -54 -30 88 103 182 51 209 -160 86z"
       id="path10" />
    <path
       d="M1902 8579 c-89 -66 -162 -128 -162 -137 0 -23 102 -2 149 31 78 53 78 17 2 -161 -41 -94 -10 -146 75 -125 68 17 254 167 254 204 0 64 -62 53 -150 -29 -145 -134 -147 -110 -9 117 79 130 95 171 77 193 -37 45 -65 34 -236 -93z"
       id="path11" />
    <path
       d="M2389 8597 c-164 -86 -215 -167 -98 -153 65 7 70 4 59 -33 -53 -165 121 -200 219 -44 34 54 -32 107 -77 62 -59 -59 -60 -13 -2 71 31 44 52 83 48 86 -4 3 -22 16 -39 29 -25 19 -48 15 -110 -18z"
       id="path12" />
    <path
       d="M5052 7803 c-6 -9 -60 -28 -122 -43 -141 -34 -160 -114 -25 -106 70 5 98 -17 57 -43 -93 -57 -125 -251 -43 -251 41 0 221 68 221 83 0 9 19 17 42 17 46 0 43 36 -7 68 -24 15 -53 11 -106 -15 -41 -19 -78 -30 -83 -25 -12 11 98 174 142 211 43 35 40 75 -7 100 -46 25 -56 26 -69 4z"
       id="path13" />
    <path
       d="M3460 7279 c0 -13 -13 -18 -30 -12 -22 9 -30 -3 -30 -46 0 -32 -9 -64 -20 -71 -12 -7 -16 -20 -11 -28 12 -20 128 -3 142 20 6 10 -2 13 -18 6 -16 -6 -35 -1 -42 11 -7 11 -3 21 9 21 12 0 17 9 9 21 -7 11 -2 33 10 48 16 19 16 31 2 40 -12 8 -21 3 -21 -10z"
       id="path14" />
    <path
       d="M2813 7191 c-6 -17 -2 -35 9 -42 25 -16 81 29 67 53 -18 28 -64 21 -76 -11z"
       id="path15" />
    <path
       d="M3878 7205 c34 -6 41 -13 23 -24 -14 -9 -18 -21 -8 -27 9 -6 38 7 64 28 l47 38 -87 -3 c-52 -1 -68 -6 -39 -12z"
       id="path16" />
    <path
       d="M3913 7094 c6 -9 24 -12 39 -6 15 6 28 3 28 -6 0 -26 -72 -83 -87 -69 -7 8 -13 -1 -13 -20 0 -18 14 -33 30 -33 17 0 30 8 30 17 0 9 18 38 40 63 55 63 50 81 -19 76 -32 -2 -53 -12 -48 -22z"
       id="path17" />
    <path
       d="M1930 6425 c-173 -35 -464 -179 -566 -281 l-74 -74 13 -383 c27 -814 168 -1202 992 -2737 206 -384 213 -421 106 -548 -150 -180 -324 -252 -604 -252 -259 0 -290 11 -213 76 183 152 211 404 55 484 -268 139 -775 -285 -670 -560 62 -162 180 -206 348 -130 98 45 104 46 101 25 -9 -52 11 -90 77 -153 167 -157 257 -237 305 -268 28 -18 86 -61 130 -95 99 -77 282 -152 361 -146 32 2 88 -3 124 -11 182 -42 413 164 756 674 325 483 407 586 610 773 241 221 410 421 528 625 53 91 116 198 140 236 185 297 414 874 583 1470 150 526 109 948 -102 1050 -83 40 -303 93 -320 77 -44 -44 155 -197 256 -197 53 0 103 -75 73 -111 -36 -43 -168 -109 -219 -109 -60 0 -193 -59 -170 -76 34 -24 35 -70 1 -56 -17 6 -44 17 -61 24 -19 8 -30 1 -30 -19 0 -22 11 -28 35 -19 63 23 7 -19 -75 -56 -44 -20 -80 -29 -80 -20 0 8 -13 15 -30 15 -16 0 -30 -7 -30 -16 0 -9 -18 -17 -40 -17 -22 0 -40 -9 -40 -20 0 -11 -18 -20 -40 -20 -22 0 -40 -10 -40 -21 0 -12 7 -17 15 -12 9 5 60 12 115 15 55 2 120 12 144 21 24 8 85 20 135 26 155 19 449 166 421 211 -6 10 -2 22 8 29 85 52 -4 -591 -118 -859 -10 -22 -38 -112 -62 -200 -84 -298 -345 -896 -491 -1125 -240 -377 -327 -487 -546 -693 -162 -153 -341 -338 -341 -354 0 -7 -36 -57 -80 -110 -44 -54 -80 -105 -80 -115 0 -10 -25 -47 -55 -84 -30 -36 -104 -140 -165 -230 -203 -303 -327 -441 -477 -531 -83 -50 -94 -51 -200 -30 -62 13 -131 26 -153 30 -98 15 -181 74 -413 291 -77 71 -163 146 -193 166 l-54 37 74 -13 c249 -44 508 -32 580 25 14 12 60 32 102 45 92 30 210 145 264 257 22 46 45 84 51 84 41 1 16 199 -38 300 -32 61 -97 182 -144 270 -138 260 -499 990 -499 1009 0 10 -10 21 -22 25 -12 4 -23 31 -25 60 -2 29 -9 49 -16 44 -18 -11 -142 247 -208 432 -29 83 -63 168 -75 190 -12 22 -28 81 -37 130 -54 312 -77 500 -89 726 l-14 256 88 -39 c48 -22 151 -54 228 -72 77 -17 185 -44 240 -59 197 -52 257 -58 243 -23 -13 34 4 39 59 18 33 -13 33 -15 0 -26 -25 -9 -5 -22 67 -45 113 -36 147 -4 46 43 -50 24 -52 27 -16 40 27 10 31 18 14 29 -14 9 -20 35 -14 59 6 24 5 32 -1 18 -6 -14 -20 -25 -31 -25 -11 0 -14 9 -7 20 13 21 -15 28 -35 8 -22 -21 -235 -25 -235 -4 0 11 -21 15 -48 8 -33 -8 -52 -2 -60 19 -6 17 -23 29 -37 27 -14 -2 -38 1 -55 6 -16 6 -84 27 -150 46 -197 58 -337 130 -251 130 10 0 30 11 45 25 37 33 95 70 156 98 137 64 255 114 295 126 91 28 49 134 -45 116z m-337 -3817 c35 -89 -86 -271 -276 -419 -45 -34 -205 -75 -212 -54 -4 11 -19 36 -33 56 -70 96 197 394 385 430 113 22 123 21 136 -13z"
       id="path18" />
    <path
       d="M3190 6406 c-22 -5 -56 -29 -75 -53 -33 -40 -35 -40 -22 -3 13 35 10 37 -17 14 -25 -20 -34 -20 -40 -2 -6 17 -19 19 -44 4 -32 -18 -33 -22 -4 -51 29 -29 29 -33 0 -39 -56 -11 54 -111 112 -102 26 4 48 9 49 11 1 3 21 34 46 69 25 35 45 73 45 84 0 10 11 22 24 27 12 4 16 18 8 31 -15 25 -17 25 -82 10z"
       id="path19" />
    <path
       d="M3351 6376 c-39 -57 -40 -88 -1 -56 41 34 39 -8 -1 -49 -18 -17 -24 -31 -15 -31 9 0 13 -40 9 -90 -6 -72 -1 -90 25 -90 18 0 51 -11 73 -25 35 -21 44 -20 61 10 11 20 28 31 37 25 9 -5 46 17 81 50 l64 60 -47 18 c-28 10 -61 10 -82 -1 -26 -13 -34 -12 -30 7 3 17 -16 23 -62 19 -46 -5 -63 1 -54 16 8 12 28 20 45 17 18 -4 34 5 37 20 3 14 1 15 -4 4 -22 -45 -66 22 -54 82 15 72 -35 81 -82 14z"
       id="path20" />
    <path
       d="M2820 6351 c-11 -31 -19 -66 -18 -78 7 -58 -5 -82 -22 -43 -14 33 -17 27 -18 -30 0 -38 12 -87 28 -108 16 -21 24 -46 18 -55 -22 -36 -28 -115 -8 -127 11 -7 30 -31 42 -54 16 -29 16 -37 0 -27 -36 22 -25 -6 20 -51 70 -70 84 -22 47 164 -18 93 -40 204 -48 248 -9 44 -18 89 -21 100 -4 11 1 36 9 56 9 20 11 41 4 48 -7 6 -21 -13 -33 -43z"
       id="path21" />
    <path
       d="M3713 6123 c-18 -20 -33 -46 -33 -58 0 -12 -32 -88 -70 -168 l-71 -147 60 -25 c86 -35 172 -13 176 45 4 44 0 46 -60 29 -84 -24 -83 -24 -46 12 17 18 31 45 31 60 0 16 10 29 21 29 12 0 16 9 9 20 -7 11 -2 20 10 20 14 0 18 16 10 40 -8 26 -4 40 12 40 15 0 8 13 -13 29 -33 25 -34 30 -6 30 51 1 68 81 17 81 -8 0 -29 -16 -47 -37z"
       id="path22" />
    <path
       d="M2444 5736 c-36 -36 -29 -57 15 -50 49 8 79 34 39 34 -23 1 -23 4 2 20 26 17 26 19 -1 20 -17 0 -42 -11 -55 -24z"
       id="path23" />
    <path
       d="M2650 5690 c-60 -27 -60 -27 -14 -44 26 -10 48 -27 48 -37 5 -55 773 -126 811 -75 15 21 25 24 25 9 0 -18 52 -24 200 -22 110 2 200 12 200 21 0 10 -11 18 -24 18 -19 0 -19 5 0 24 85 85 50 91 -478 92 -332 1 -510 8 -524 22 -30 30 -170 25 -244 -8z"
       id="path24" />
    <path
       d="M3960 5580 c0 -11 0 -26 0 -34 0 -14 19 -15 110 -8 17 1 30 16 30 32 0 25 -7 26 -43 5 -34 -20 -44 -20 -51 0 -11 30 -46 34 -46 5z"
       id="path25" />
    <path
       d="M1900 5539 c0 -12 -7 -17 -16 -11 -10 5 -19 -37 -22 -94 -3 -65 3 -96 14 -84 20 21 50 210 34 210 -6 0 -10 -10 -10 -21z"
       id="path26" />
    <path
       d="M2010 5505 c-11 -8 -23 -33 -26 -55 -19 -115 -23 -157 -13 -130 7 17 20 48 29 70 16 38 40 130 33 130 -2 0 -12 -7 -23 -15z"
       id="path27" />
    <path
       d="M2627 5355 c-20 -23 -26 -35 -12 -27 16 9 26 1 26 -22 1 -20 6 -58 11 -86 6 -37 3 -42 -11 -21 -10 17 -25 23 -34 15 -8 -8 -4 -25 10 -39 18 -18 13 -29 -22 -48 -43 -25 -42 -26 22 -26 53 -1 65 6 55 30 -6 18 -3 48 7 68 11 20 14 41 7 49 -18 17 -20 111 -3 100 8 -5 19 0 26 10 24 39 -47 37 -82 -3z"
       id="path28" />
    <path
       d="M4019 5363 c11 -21 13 -44 6 -51 -8 -8 2 -8 21 -1 26 10 31 6 22 -19 -7 -17 -2 -32 10 -32 33 0 25 44 -17 95 -45 55 -70 59 -42 8z"
       id="path29" />
    <path
       d="M4309 5355 c-6 -25 -12 -65 -14 -90 -2 -25 -9 -45 -17 -45 -20 0 -84 -181 -69 -196 8 -8 23 2 34 22 11 19 28 29 39 23 10 -7 17 -1 13 12 -3 13 8 29 23 34 17 6 22 1 14 -12 -8 -14 -1 -23 17 -23 44 0 39 42 -7 54 -40 10 -42 35 -12 166 8 39 25 77 38 85 14 9 9 15 -13 15 -19 0 -39 -20 -46 -45z"
       id="path30" />
    <path
       d="M3643 5275 c1 -54 6 -67 11 -35 5 28 18 59 28 69 27 28 22 51 -12 51 -22 0 -29 -22 -27 -85z"
       id="path31" />
    <path
       d="M3878 5336 c-2 -14 -1 -37 1 -51 5 -41 -19 -28 -38 20 -13 30 -19 34 -20 12 -1 -40 50 -85 78 -68 12 8 21 30 21 51 0 43 -39 76 -42 36z"
       id="path32" />
    <path
       d="M2965 5284 c-32 -66 -34 -212 -3 -159 11 20 14 55 7 78 -8 26 -6 37 7 30 10 -7 24 10 29 38 13 69 -10 77 -40 13z"
       id="path33" />
    <path
       d="M2440 5242 c0 -37 -10 -102 -23 -145 -13 -42 -17 -83 -10 -90 20 -20 32 0 37 61 4 46 12 52 50 43 41 -10 46 -4 46 52 0 35 -7 57 -15 49 -8 -9 -15 -25 -15 -37 0 -12 -10 -25 -22 -29 -13 -4 -23 14 -23 43 0 33 11 52 33 53 27 1 27 3 2 13 -16 6 -37 21 -45 33 -8 12 -15 -8 -15 -46z"
       id="path34" />
    <path
       d="M4706 5275 c-50 -23 -77 -75 -40 -75 14 0 38 18 54 40 21 29 32 33 44 15 11 -19 15 -19 16 -1 0 36 -25 43 -74 21z"
       id="path35" />
    <path
       d="M3996 5266 c19 -7 20 -17 4 -36 -32 -38 9 -57 62 -29 40 21 -24 84 -79 77 -7 0 -1 -6 13 -12z"
       id="path36" />
    <path
       d="M1780 5243 c0 -11 -16 -24 -35 -29 -31 -8 -31 -10 -1 -12 18 -1 37 -18 42 -37 9 -32 10 -32 12 1 1 20 11 31 22 24 30 -19 24 9 -10 43 -16 16 -30 21 -30 10z"
       id="path37" />
    <path
       d="M2866 5227 c7 -7 5 -27 -5 -45 -11 -21 -7 -41 11 -58 24 -21 28 -14 28 45 0 41 -10 71 -23 71 -13 0 -18 -6 -11 -13z"
       id="path38" />
    <path
       d="M3063 5153 c5 -40 1 -73 -8 -73 -10 0 -12 -8 -6 -19 6 -10 3 -24 -9 -31 -11 -7 -20 -30 -20 -51 0 -22 -11 -40 -25 -40 -14 -1 -7 -10 15 -19 40 -17 40 -17 0 -19 -23 -1 -31 -8 -19 -16 29 -20 32 -105 4 -105 -12 0 -5 -14 16 -30 36 -28 36 -29 2 -17 -32 11 -35 6 -23 -35 22 -70 59 -86 66 -29 5 36 15 46 40 36 30 -11 29 -8 -3 24 -27 28 -35 61 -30 132 4 53 0 91 -8 86 -25 -15 -17 28 10 57 34 36 44 188 14 207 -18 10 -22 -5 -16 -58z"
       id="path39" />
    <path
       d="M4450 5197 c7 -18 3 -39 -9 -46 -11 -7 -21 -4 -21 8 0 11 -8 21 -18 21 -10 0 -15 -16 -12 -35 4 -19 8 -42 8 -50 4 -35 45 -11 63 38 14 37 14 60 -1 75 -16 16 -19 13 -10 -11z"
       id="path40" />
    <path
       d="M3973 5092 c8 -63 5 -92 -10 -92 -13 0 -23 -13 -23 -29 0 -18 -12 -25 -30 -18 -16 6 -30 3 -30 -6 0 -35 97 -27 106 8 8 29 12 28 24 -10 20 -63 40 -56 42 14 1 33 -5 55 -15 49 -17 -10 -26 31 -21 95 2 18 -10 44 -27 57 -25 21 -27 12 -16 -68z"
       id="path41" />
    <path
       d="M3524 5076 c-13 -13 -23 -47 -23 -75 2 -46 3 -47 19 -11 15 34 17 35 19 5 0 -19 9 -35 20 -35 11 0 11 24 1 59 -11 40 -9 62 7 68 13 6 14 11 2 11 -12 1 -32 -9 -45 -22z"
       id="path42" />
    <path
       d="M2573 5050 c-19 -49 -16 -74 7 -60 11 7 20 3 20 -9 0 -11 -13 -21 -30 -21 -34 0 -40 -31 -10 -50 11 -7 20 -3 20 9 0 11 14 21 32 21 25 0 29 12 19 55 -18 73 -43 96 -58 55z"
       id="path43" />
    <path
       d="M3250 5060 c-17 -28 27 -100 61 -100 33 0 39 32 9 50 -12 7 -16 20 -10 29 5 9 -3 22 -19 28 -17 6 -35 3 -41 -7z"
       id="path44" />
    <path
       d="M1813 5047 c-7 -8 -12 -46 -10 -85 2 -55 5 -60 11 -22 12 66 36 88 77 72 27 -10 29 -18 8 -43 -13 -16 -19 -35 -13 -42 7 -7 0 -31 -16 -53 -25 -36 -24 -44 6 -69 24 -19 27 -30 10 -38 -16 -6 -20 -32 -12 -72 9 -43 6 -57 -11 -47 -13 8 -23 5 -23 -7 0 -11 10 -21 23 -21 14 0 18 -22 10 -61 -7 -34 -5 -56 4 -51 9 6 23 90 30 186 14 181 28 297 43 341 9 27 -112 37 -137 12z"
       id="path45" />
    <path
       d="M2308 5025 c-6 -19 -17 -48 -25 -65 -8 -16 -9 -57 -2 -90 12 -60 12 -60 27 20 8 44 18 100 24 125 10 53 -8 61 -24 10z"
       id="path46" />
    <path
       d="M2469 5023 c7 -22 2 -46 -10 -54 -17 -10 -16 -19 4 -31 43 -27 62 -21 48 15 -7 19 -3 39 8 46 11 7 1 24 -22 38 -36 23 -39 21 -28 -14z"
       id="path47" />
    <path
       d="M2926 5020 c-6 -22 -19 -40 -28 -40 -10 0 -17 -16 -16 -35 1 -26 4 -27 12 -7 8 19 19 9 35 -30 23 -55 24 -53 23 47 -2 111 -9 130 -26 65z"
       id="path48" />
    <path
       d="M4554 4980 c-7 -28 3 -48 31 -63 35 -18 39 -17 28 12 -7 19 -13 47 -13 63 0 42 -34 34 -46 -12z"
       id="path49" />
    <path
       d="M2817 4965 c-2 -19 -1 -56 1 -82 2 -25 -7 -61 -21 -80 -21 -28 -19 -28 13 2 24 22 39 64 40 115 2 77 -27 116 -33 45z"
       id="path50" />
    <path
       d="M2091 4946 c-23 -60 -10 -108 34 -125 30 -12 34 -19 13 -20 -26 -1 -31 -21 -26 -114 7 -125 28 -173 28 -64 0 39 6 76 13 84 23 22 31 158 9 144 -11 -7 -30 7 -43 30 -20 39 -18 42 24 31 26 -6 36 -6 22 0 -14 6 -25 20 -25 31 0 11 11 13 25 5 14 -8 18 -7 9 3 -26 29 -71 27 -83 -5z"
       id="path51" />
    <path
       d="M3222 4966 c-1 -13 7 -29 18 -36 13 -8 13 -25 1 -49 -13 -23 -13 -60 -1 -102 14 -49 12 -81 -9 -123 -16 -31 -21 -52 -11 -46 9 6 23 2 30 -10 7 -11 -1 -20 -17 -20 -19 0 -34 -30 -44 -85 -7 -47 -22 -100 -31 -118 -11 -21 -10 -36 3 -41 13 -4 12 -29 -3 -73 -17 -49 -28 -60 -41 -40 -12 18 -16 9 -11 -29 3 -32 19 -66 35 -77 22 -15 23 -22 4 -30 -16 -7 -19 -22 -7 -44 9 -18 14 -51 10 -73 -29 -158 -32 -310 -6 -310 21 0 29 39 32 155 6 199 10 233 30 247 41 27 44 220 4 207 -37 -12 -37 -12 0 19 40 33 67 172 32 172 -11 0 -20 10 -20 21 0 12 8 17 17 11 9 -6 26 21 38 59 18 59 17 69 -12 70 -28 2 -28 4 -3 15 41 19 51 304 11 304 -15 0 -32 11 -38 25 -7 18 -10 18 -11 1z"
       id="path52" />
    <path
       d="M4335 4897 c-26 -62 -29 -90 -12 -110 16 -20 16 -27 -1 -27 -12 0 -22 -11 -22 -24 0 -58 47 27 54 98 5 42 17 85 27 95 23 23 25 51 4 51 -8 0 -31 -38 -50 -83z"
       id="path53" />
    <path
       d="M3464 4951 c8 -9 5 -34 -7 -56 -16 -30 -14 -47 9 -70 42 -42 74 -14 71 61 -2 47 -5 52 -11 19 -5 -25 -16 -45 -26 -45 -9 0 -12 17 -6 38 5 21 -3 44 -17 53 -15 8 -21 8 -13 0z"
       id="path54" />
    <path
       d="M4280 4940 c0 -11 1 -26 2 -33 1 -7 -11 -20 -25 -29 -15 -9 -29 -33 -32 -52 -3 -20 -10 -67 -18 -104 -8 -47 -6 -63 10 -54 26 16 66 151 51 175 -6 9 -2 17 8 17 11 0 24 23 29 50 5 28 2 50 -8 50 -9 0 -17 -9 -17 -20z"
       id="path55" />
    <path
       d="M3660 4899 c0 -23 -18 -47 -44 -57 -42 -15 -42 -16 11 -29 59 -15 93 -4 93 31 0 12 -13 10 -33 -6 -29 -25 -31 -22 -17 22 8 28 25 57 38 65 14 9 9 15 -13 15 -22 0 -35 -15 -35 -41z"
       id="path56" />
    <path
       d="M2398 4905 c-2 -8 -1 -31 1 -51 2 -20 -11 -59 -29 -87 -18 -28 -27 -56 -19 -64 8 -7 18 -2 23 12 5 14 23 25 40 25 20 0 26 12 18 35 -10 29 -7 29 18 -4 16 -21 31 -35 31 -30 1 5 6 32 11 59 6 38 3 43 -12 20 -20 -30 -30 7 -21 75 3 26 -57 36 -61 10z"
       id="path57" />
    <path
       d="M2578 4893 c-18 -13 -36 -52 -41 -88 -8 -51 -5 -60 17 -42 19 16 34 15 56 -3 17 -14 30 -18 30 -11 0 8 -20 31 -45 52 -36 30 -38 38 -12 38 34 1 66 53 41 69 -8 4 -29 -2 -46 -15z"
       id="path58" />
    <path
       d="M3993 4834 c6 -59 5 -60 -11 -14 -18 50 -18 50 -20 4 -2 -37 -10 -44 -42 -34 -23 7 -40 4 -40 -9 0 -21 26 -29 75 -22 25 3 33 -33 26 -109 -3 -30 1 -35 19 -17 13 13 26 58 28 100 2 43 10 88 18 101 9 14 0 32 -22 44 -33 17 -36 12 -31 -44z"
       id="path59" />
    <path
       d="M4520 4850 c0 -16 -10 -30 -22 -30 -13 0 -18 -18 -12 -40 6 -22 4 -40 -5 -40 -8 0 -14 -15 -14 -33 0 -28 3 -28 26 3 14 20 21 44 15 53 -6 10 4 31 21 49 35 35 41 68 11 68 -11 0 -20 -13 -20 -30z"
       id="path60" />
    <path
       d="M4603 4849 c-2 -23 -13 -51 -25 -63 -15 -15 -15 -25 2 -36 34 -21 44 -1 35 73 -5 37 -10 49 -12 26z"
       id="path61" />
    <path
       d="M2332 4652 c16 -42 105 -54 94 -13 -5 18 -30 34 -56 36 -34 3 -45 -4 -38 -23z"
       id="path62" />
    <path
       d="M2780 4653 c0 -18 -8 -33 -17 -33 -10 0 -13 -37 -8 -83 6 -57 3 -78 -13 -68 -12 7 -22 4 -22 -8 0 -41 57 -20 66 24 l9 45 2 -46 c2 -26 -10 -60 -27 -77 -16 -16 -30 -20 -30 -8 0 11 -9 21 -20 21 -37 0 -21 -98 19 -119 53 -29 59 -27 47 19 -7 24 1 44 20 51 21 8 30 39 29 100 -1 48 -8 83 -17 78 -8 -5 -15 18 -14 51 1 33 -4 66 -11 74 -7 7 -13 -2 -13 -21z"
       id="path63" />
    <path
       d="M2520 4618 c-23 -16 -20 -18 15 -8 33 9 45 4 45 -19 0 -17 -8 -31 -18 -31 -10 0 -16 -11 -13 -25 3 -14 12 -64 21 -112 10 -55 21 -77 32 -61 8 15 10 51 4 81 -6 30 -1 83 11 117 12 34 13 56 4 50 -10 -6 -24 -2 -31 10 -16 25 -32 25 -70 -2z"
       id="path64" />
    <path
       d="M2360 4584 c-1 -8 -9 -49 -19 -91 -13 -58 -12 -72 5 -55 32 32 55 27 41 -8 -6 -16 -4 -30 6 -30 20 0 67 95 67 135 0 16 10 21 23 13 15 -9 18 -5 8 10 -11 18 -21 18 -43 1 -17 -15 -28 -16 -28 -4 0 23 -60 52 -60 29z"
       id="path65" />
    <path
       d="M3424 4540 c5 -63 12 -68 64 -48 46 18 39 68 -9 68 -23 0 -36 9 -29 20 7 11 3 20 -9 20 -12 0 -20 -27 -17 -60z"
       id="path66" />
    <path
       d="M2068 4510 c0 -42 10 -70 25 -70 35 0 52 35 22 47 -20 8 -20 10 0 11 20 2 20 10 0 42 -35 57 -47 50 -47 -30z"
       id="path67" />
    <path
       d="M3895 4525 c27 -71 87 -121 79 -65 -4 26 -18 51 -31 56 -13 4 -18 16 -12 26 6 10 -2 18 -19 18 -21 0 -27 -11 -17 -35z"
       id="path68" />
    <path
       d="M4131 4504 c-25 -24 -8 -40 31 -29 25 6 49 -1 60 -17 13 -21 17 -18 18 15 0 40 -78 63 -109 31z"
       id="path69" />
    <path
       d="M2960 4440 c0 -22 -8 -40 -19 -40 -11 0 -11 -24 -1 -58 9 -33 12 -63 7 -68 -5 -5 -12 -31 -14 -58 -3 -26 -13 -60 -22 -75 -12 -18 -10 -23 6 -13 15 9 21 -3 19 -37 -3 -30 -17 -51 -35 -51 -27 -1 -28 -3 -1 -20 27 -18 27 -22 0 -40 -16 -11 -21 -20 -10 -20 28 0 31 -127 4 -144 -12 -7 -22 -68 -22 -135 0 -71 -9 -121 -21 -121 -12 0 -7 -9 9 -20 25 -16 26 -25 4 -61 -23 -38 -22 -42 10 -35 27 5 35 23 33 76 -2 39 5 131 16 204 11 74 24 187 29 250 5 64 12 139 15 166 4 28 -3 57 -15 66 -12 9 10 11 48 5 56 -9 61 -7 26 8 -66 29 -54 107 13 91 49 -12 49 -11 12 16 -22 16 -49 26 -61 21 -14 -5 -19 17 -14 62 5 39 3 71 -4 71 -7 0 -12 -18 -12 -40z"
       id="path70" />
    <path
       d="M2480 4390 c0 -27 9 -50 20 -50 11 0 20 8 20 18 0 10 5 33 12 50 8 21 1 32 -20 32 -21 0 -32 -17 -32 -50z"
       id="path71" />
    <path
       d="M4162 4424 c-1 -15 -10 -21 -21 -15 -22 14 -49 -61 -31 -89 7 -11 28 -19 46 -18 21 1 24 5 9 11 -31 13 -33 61 -2 71 13 5 18 21 12 37 -9 21 -12 22 -13 3z"
       id="path72" />
    <path
       d="M2093 4376 c-21 -22 -30 -46 -20 -53 37 -27 32 -123 -7 -123 -23 -1 -28 -6 -13 -15 13 -9 27 -47 31 -85 8 -69 8 -69 29 -20 34 81 49 184 25 169 -14 -9 -17 16 -7 79 15 103 14 105 -38 48z"
       id="path73" />
    <path
       d="M2329 4227 c6 -135 1 -160 -31 -183 -47 -33 -2 -93 57 -78 30 8 29 10 -5 12 -34 2 -35 6 -10 24 25 18 25 20 -5 11 -19 -7 -35 -3 -35 8 0 10 14 19 30 19 17 0 30 8 30 19 0 10 20 22 45 27 l45 9 -46 2 c-73 5 -50 85 36 130 65 34 66 36 15 28 -61 -10 -63 -8 -35 44 14 27 11 44 -10 61 -24 20 -30 20 -30 0 0 -19 -6 -20 -29 -1 -25 21 -28 2 -22 -132z"
       id="path74" />
    <path
       d="M2560 4279 c0 -21 -9 -39 -20 -39 -26 0 -26 -120 0 -160 15 -24 19 -19 20 23 0 86 24 177 42 165 10 -5 18 -2 18 9 0 10 -13 24 -30 30 -20 8 -30 -1 -30 -28z"
       id="path75" />
    <path
       d="M1967 4276 c-6 -11 -3 -26 7 -33 11 -7 25 -26 31 -43 8 -21 12 -16 13 13 1 24 13 47 26 52 14 4 5 13 -19 20 -25 6 -51 2 -58 -9z"
       id="path76" />
    <path
       d="M2700 4250 c0 -16 9 -30 20 -30 11 0 20 -16 20 -35 1 -30 3 -31 20 -5 25 39 25 86 0 70 -11 -7 -20 -3 -20 9 0 11 -9 21 -20 21 -11 0 -20 -13 -20 -30z"
       id="path77" />
    <path
       d="M3381 4210 c-3 -33 -3 -86 -1 -118 2 -31 -7 -64 -20 -72 -16 -10 -14 -18 9 -27 40 -15 93 81 56 104 -12 7 -26 49 -30 93 -7 68 -9 71 -14 20z"
       id="path78" />
    <path
       d="M3990 4179 c-19 -113 -1 -119 24 -9 11 50 13 90 5 90 -9 0 -22 -37 -29 -81z"
       id="path79" />
    <path
       d="M2693 4187 c-30 -30 -12 -87 27 -87 22 0 40 9 40 20 0 11 -14 20 -32 20 -20 0 -28 11 -21 30 13 32 8 38 -14 17z"
       id="path80" />
    <path
       d="M3060 4094 c0 -25 -11 -58 -25 -72 -18 -20 -19 -29 -2 -35 17 -7 17 -27 2 -77 -12 -40 -30 -63 -43 -56 -12 6 -11 0 3 -15 31 -33 33 -86 3 -68 -15 9 -14 -1 2 -30 13 -25 27 -41 31 -36 19 18 58 435 41 435 -7 0 -12 -21 -12 -46z"
       id="path81" />
    <path
       d="M2679 4027 c-12 -31 -17 -72 -12 -91 5 -20 3 -36 -5 -36 -8 0 -11 -27 -6 -60 5 -33 17 -60 28 -60 10 0 13 -20 6 -45 -10 -39 -9 -40 10 -10 12 19 17 43 11 53 -6 10 1 22 16 28 18 7 26 49 24 135 -1 139 -36 180 -72 86z"
       id="path82" />
    <path
       d="M3887 4037 c-40 -52 -54 -84 -30 -69 13 8 24 3 24 -12 1 -14 10 -4 21 22 23 59 14 96 -15 59z"
       id="path83" />
    <path
       d="M4000 3998 c0 -11 8 -15 19 -9 37 23 44 -32 8 -62 -31 -25 -31 -29 -4 -20 20 6 39 -3 46 -22 10 -26 21 -19 53 34 30 49 35 72 18 89 -16 16 -19 13 -10 -11 16 -41 -28 -72 -51 -36 -9 15 -13 32 -9 39 4 6 -10 13 -31 15 -22 1 -39 -6 -39 -17z"
       id="path84" />
    <path
       d="M4213 3990 c-29 -21 -32 -35 -15 -64 19 -32 21 -33 21 -2 1 19 16 42 34 52 17 10 24 23 14 29 -9 7 -34 -1 -54 -15z"
       id="path85" />
    <path
       d="M2392 3908 c-17 -44 -15 -52 8 -38 11 7 20 1 20 -13 0 -19 6 -19 23 -2 24 24 10 85 -20 85 -10 0 -24 -14 -31 -32z"
       id="path86" />
    <path
       d="M3380 3910 c0 -16 -10 -30 -22 -30 -17 0 -16 -8 0 -28 18 -22 18 -30 -1 -36 -18 -6 -16 -12 6 -20 17 -7 43 -4 59 6 21 13 22 17 2 18 -15 0 -20 10 -12 23 9 15 5 18 -10 8 -17 -10 -20 0 -11 37 7 29 8 52 1 52 -7 0 -12 -13 -12 -30z"
       id="path87" />
    <path
       d="M3827 3854 c3 -139 -8 -256 -23 -246 -9 5 -16 -12 -16 -39 0 -26 12 -52 27 -58 15 -6 25 1 23 14 -7 60 3 79 37 67 33 -11 33 -10 0 15 -34 27 -35 184 -3 237 6 9 -2 29 -18 45 -24 24 -28 20 -27 -35z"
       id="path88" />
    <path
       d="M3520 3885 c0 -12 -20 -17 -45 -13 -25 5 -34 3 -21 -3 32 -16 10 -70 -53 -124 -51 -45 -51 -45 -6 -45 27 0 45 12 45 30 0 17 7 28 15 25 24 -7 106 57 92 72 -7 7 -28 2 -45 -12 -20 -15 -17 -7 6 20 21 25 32 51 25 58 -7 8 -13 4 -13 -8z"
       id="path89" />
    <path
       d="M3980 3820 c0 -11 10 -20 22 -20 17 0 16 -8 -1 -28 -18 -22 -17 -32 3 -43 14 -9 20 -8 12 0 -8 9 6 34 30 55 24 21 33 33 19 26 -14 -7 -25 -3 -25 9 0 11 -13 21 -30 21 -16 0 -30 -9 -30 -20z"
       id="path90" />
    <path
       d="M2400 3810 c0 -7 10 -31 21 -53 16 -29 15 -47 -3 -69 -18 -22 -18 -36 -2 -52 16 -16 25 -9 33 26 25 106 21 146 -14 154 -19 4 -35 1 -35 -6z"
       id="path91" />
    <path
       d="M3554 3725 c7 -43 4 -48 -12 -25 -19 26 -21 26 -22 -3 0 -45 56 -63 65 -21 9 43 -5 104 -25 104 -8 0 -10 -25 -6 -55z"
       id="path92" />
    <path
       d="M2646 3616 c-3 -32 6 -57 20 -57 13 -1 4 -10 -21 -20 -25 -10 -45 -27 -45 -38 0 -11 12 -15 27 -10 15 6 26 -2 26 -19 0 -17 -8 -25 -18 -19 -10 6 -15 -10 -11 -36 4 -26 19 -44 33 -41 15 3 23 -6 18 -20 -13 -41 -84 -31 -98 14 -7 22 -14 -36 -15 -130 -2 -93 -6 -188 -9 -210 -4 -22 -3 -29 1 -15 5 14 16 25 25 25 8 0 11 23 6 50 -6 29 0 50 13 50 21 0 31 -28 24 -67 -2 -10 6 -29 18 -43 16 -19 15 -28 -2 -34 -29 -10 -5 -96 26 -96 14 0 17 35 9 102 -7 65 -3 122 14 155 45 94 45 514 0 514 -26 0 -38 -16 -41 -55z m-37 -380 c-7 -23 -6 -36 4 -31 9 6 28 -1 42 -16 15 -17 17 -31 5 -39 -11 -7 -20 -3 -20 9 0 11 -13 21 -30 21 -20 0 -30 20 -30 61 0 37 8 56 21 48 11 -7 15 -31 8 -53z"
       id="path93" />
    <path
       d="M2998 3655 c-2 -14 -1 -36 1 -50 1 -14 -5 -25 -15 -25 -20 0 -13 -161 9 -226 12 -34 18 -19 28 66 7 61 4 116 -7 123 -11 7 -9 18 4 26 27 17 29 111 2 111 -11 0 -21 -11 -22 -25z"
       id="path94" />
    <path
       d="M3420 3400 c0 -11 -13 -20 -30 -20 -16 0 -30 -11 -30 -25 -1 -17 -7 -15 -20 5 -16 24 -19 21 -20 -15 0 -52 35 -60 53 -13 10 24 30 29 85 20 40 -6 61 -6 47 0 -14 6 -19 21 -12 33 8 12 4 15 -10 7 -13 -8 -23 -5 -23 7 0 11 -9 21 -20 21 -11 0 -20 -9 -20 -20z"
       id="path95" />
    <path
       d="M3090 3309 c0 -52 6 -57 43 -34 41 26 39 69 -3 76 -31 6 -40 -4 -40 -42z"
       id="path96" />
    <path
       d="M2880 3291 c0 -36 -8 -47 -30 -38 -16 6 -30 1 -30 -11 0 -12 13 -22 28 -22 19 0 25 -15 19 -45 -9 -41 -8 -42 13 -8 13 20 19 41 14 46 -6 6 -3 36 6 69 10 34 10 58 -1 58 -11 0 -19 -22 -19 -49z"
       id="path97" />
    <path
       d="M2955 3291 c-7 -38 34 -91 70 -91 21 0 0 76 -28 103 -31 31 -34 30 -42 -12z"
       id="path98" />
    <path
       d="M3428 3210 c1 -45 12 -70 29 -70 19 0 24 14 16 45 -7 25 -13 56 -13 70 0 14 -7 25 -17 25 -9 0 -15 -31 -15 -70z"
       id="path99" />
    <path
       d="M3300 3185 c0 -9 11 -28 24 -41 19 -19 19 -29 0 -48 -35 -35 -29 -54 14 -42 25 6 36 23 32 48 -8 40 -70 114 -70 83z"
       id="path100" />
    <path
       d="M2935 3052 c5 -28 22 -61 37 -74 44 -36 36 35 -9 84 -38 40 -38 40 -28 -10z"
       id="path101" />
    <path
       d="M3435 3088 c-16 -16 49 -88 69 -76 9 6 16 -1 17 -16 0 -15 9 -11 21 10 39 66 -53 136 -107 82z"
       id="path102" />
    <path
       d="M3152 3025 c28 -19 34 -169 7 -186 -11 -7 -14 -29 -6 -51 14 -35 16 -34 29 12 30 107 21 240 -17 240 -21 0 -27 -6 -13 -15z"
       id="path103" />
    <path
       d="M2837 2996 c-9 -89 -5 -201 8 -209 8 -5 16 11 16 37 1 25 5 75 10 110 5 35 0 69 -11 76 -11 7 -21 1 -23 -14z"
       id="path104" />
    <path
       d="M2934 2934 c-14 -38 4 -154 24 -154 7 0 15 24 18 53 2 29 15 67 29 84 21 25 20 28 -9 18 -18 -7 -37 -2 -41 10 -4 13 -13 8 -21 -11z"
       id="path105" />
    <path
       d="M3340 2847 l0 -53 40 46 c22 25 40 49 40 53 0 4 -18 7 -40 7 -30 0 -40 -13 -40 -53z"
       id="path106" />
    <path
       d="M3040 2831 c0 -27 9 -54 20 -61 12 -7 20 13 20 49 0 33 -9 61 -20 61 -11 0 -20 -22 -20 -49z"
       id="path107" />
    <path
       d="M2787 2750 c-7 -18 -3 -42 8 -53 28 -28 90 -14 100 23 5 18 1 22 -8 10 -10 -11 -35 -23 -56 -27 -32 -5 -35 -2 -14 23 17 21 18 35 4 43 -12 8 -27 -1 -34 -19z"
       id="path108" />
    <path
       d="M2807 2610 c7 -16 3 -30 -8 -30 -10 0 -19 -25 -18 -55 0 -53 2 -53 30 -16 34 45 39 131 7 131 -12 0 -17 -13 -11 -30z"
       id="path109" />
    <path
       d="M3021 2609 c0 -23 -12 -53 -26 -67 -20 -22 -20 -29 0 -36 39 -14 29 -46 -10 -33 -30 9 -30 7 -5 -11 17 -12 36 -22 43 -22 21 0 33 127 16 170 -16 40 -16 40 -18 -1z"
       id="path110" />
    <path
       d="M2914 2585 c-28 -48 -35 -145 -11 -145 18 0 27 27 27 80 0 83 -2 90 -16 65z"
       id="path111" />
    <path
       d="M2864 2351 c-26 -91 -25 -96 17 -64 21 16 27 41 18 83 l-12 60 -23 -79z"
       id="path112" />
    <path
       d="M2755 2278 c6 -24 -1 -50 -17 -62 -22 -15 -22 -21 -3 -29 43 -17 27 -50 -17 -36 -35 11 -39 7 -22 -24 10 -20 15 -48 10 -62 -16 -44 26 -27 50 20 34 69 39 235 6 235 -10 0 -13 -19 -7 -42z"
       id="path113" />
    <path
       d="M2303 1757 c-2 -30 -14 -58 -28 -64 -19 -8 -19 -10 1 -11 15 -1 21 -10 15 -20 -6 -10 5 -14 26 -9 35 9 53 67 21 67 -8 0 -19 20 -24 45 -8 40 -9 39 -11 -8z"
       id="path114" />
    <path
       d="M3693 1267 c-40 -41 14 -181 59 -152 42 28 51 99 17 133 -34 35 -55 40 -76 19z"
       id="path115" />
    <path
       d="M2786 1122 c-6 -23 -18 -37 -27 -32 -8 6 -46 -28 -82 -75 -37 -47 -88 -106 -113 -132 l-47 -47 -52 47 c-29 26 -71 68 -94 94 -62 69 -144 43 -170 -54 -35 -132 -33 -559 2 -595 71 -71 97 10 97 298 l0 263 48 -71 c115 -169 241 -164 349 13 75 123 75 122 57 -205 -17 -313 -4 -395 61 -382 74 14 92 898 19 912 -24 5 -41 -7 -48 -34z"
       id="path116" />
    <path
       d="M592 1087 c-330 -179 -250 -810 96 -753 219 35 388 393 292 618 -63 147 -247 212 -388 135z m283 -160 c82 -112 -21 -363 -175 -427 -164 -68 -266 175 -149 355 77 118 261 158 324 72z"
       id="path117" />
    <path
       d="M1214 1106 c-5 -9 -43 -128 -84 -266 -41 -137 -87 -274 -102 -304 -74 -144 -15 -197 202 -183 142 9 165 16 205 64 88 103 -4 144 -212 93 l-67 -16 13 68 c7 37 36 142 63 231 51 165 57 308 15 322 -13 4 -28 0 -33 -9z"
       id="path118" />
    <path
       d="M1987 995 c-31 -36 -77 -92 -101 -125 l-44 -60 -117 116 c-83 82 -128 112 -151 103 -65 -25 -17 -128 114 -243 l90 -79 -89 -113 c-87 -110 -107 -175 -71 -232 29 -45 70 -14 162 121 48 70 137 194 198 276 149 199 147 197 133 252 -16 67 -56 61 -124 -16z"
       id="path119" />
    <path
       d="M3110 1036 c-61 -34 -60 -30 -60 -387 0 -295 4 -337 34 -356 58 -37 76 7 81 195 l5 176 92 -10 c248 -30 381 107 269 277 -75 114 -304 171 -421 105z m292 -150 c70 -42 73 -57 13 -73 -160 -43 -317 18 -242 94 26 26 172 12 229 -21z"
       id="path120" />
    <path
       d="M4074 902 c-231 -214 -194 -663 59 -711 45 -9 66 -26 75 -62 19 -75 92 -67 92 10 0 33 15 70 36 85 231 168 263 463 72 651 -139 137 -209 142 -334 27z m176 -82 c7 -11 44 -34 81 -49 87 -36 117 -107 90 -209 -23 -82 -140 -209 -155 -167 -36 99 -118 91 -130 -11 l-6 -54 -37 55 c-55 81 -65 214 -23 297 65 128 147 191 180 138z"
       id="path121" />
    <path
       d="M4640 933 c0 -4 -9 -55 -20 -113 -45 -236 26 -546 132 -572 212 -53 441 569 247 672 -21 12 -40 19 -41 16 -14 -34 -11 -118 3 -127 61 -37 -87 -409 -163 -409 -57 0 -66 36 -72 270 -2 121 -5 231 -5 245 -1 21 -81 39 -81 18z"
       id="path122" />
    <path
       d="M5394 918 c-74 -6 -144 -20 -155 -31 -60 -60 -108 -518 -61 -575 63 -75 406 -23 419 64 13 92 -5 104 -109 72 -169 -50 -228 -40 -228 40 0 68 1 69 91 69 105 0 149 28 149 97 0 46 -5 49 -105 43 -94 -5 -106 -1 -111 37 -6 39 3 42 146 44 185 3 230 23 230 103 0 66 24 62 -266 37z"
       id="path123" />
    <path
       d="M3672 885 c-22 -69 -20 -505 2 -527 84 -84 155 330 87 509 -23 60 -73 70 -89 18z"
       id="path124" />
  </g>
</svg>
