<?xml version="1.0" encoding="UTF-8" standalone="no"?>
<svg
   version="1.0"
   width="173.72987pt"
   height="229.1304pt"
   viewBox="0 0 173.72987 229.1304"
   preserveAspectRatio="xMidYMid"
   id="svg124"
   sodipodi:docname="logo.svg"
   inkscape:version="1.3.2 (091e20e, 2023-11-25, custom)"
   xmlns:inkscape="http://www.inkscape.org/namespaces/inkscape"
   xmlns:sodipodi="http://sodipodi.sourceforge.net/DTD/sodipodi-0.dtd"
   xmlns="http://www.w3.org/2000/svg"
   xmlns:svg="http://www.w3.org/2000/svg">
  <defs
     id="defs124" />
  <sodipodi:namedview
     id="namedview124"
     pagecolor="#ffffff"
     bordercolor="#000000"
     borderopacity="0.25"
     inkscape:showpageshadow="2"
     inkscape:pageopacity="0.0"
     inkscape:pagecheckerboard="0"
     inkscape:deskcolor="#d1d1d1"
     inkscape:document-units="pt"
     showgrid="false"
     inkscape:zoom="1.5273438"
     inkscape:cx="112.94117"
     inkscape:cy="229.81073"
     inkscape:window-width="1278"
     inkscape:window-height="1360"
     inkscape:window-x="0"
     inkscape:window-y="0"
     inkscape:window-maximized="0"
     inkscape:current-layer="svg124" />
  <metadata
     id="metadata1">
Created by potrace 1.10, written by Peter Selinger 2001-2011
</metadata>
  <g
     transform="matrix(0.05,0,0,-0.05,-87,510)"
     fill="#000000"
     stroke="none"
     id="g124">
    <path
       d="m 3605,9985 c -2,-275 -60,-520 -261,-1105 -74,-215 -117,-311 -289,-640 -37,-72 -74,-153 -81,-180 -13,-47 -17,-44 -75,56 -129,223 -294,253 -297,54 -2,-147 -61,-286 -211,-500 -305,-433 -341,-559 -340,-1170 1,-494 17,-607 88,-625 51,-14 62,56 40,245 -44,381 -4,984 76,1122 19,34 50,88 68,120 75,136 183,298 199,298 32,0 183,330 185,405 3,89 33,96 92,22 31,-40 41,-78 38,-152 -4,-123 25,-145 113,-88 59,39 102,108 223,358 20,41 42,75 49,75 7,0 25,29 38,65 14,36 51,119 82,185 56,120 198,533 278,806 64,219 104,499 89,613 l -14,99 69,-59 c 78,-67 103,-109 166,-282 119,-328 50,-1311 -120,-1700 -15,-35 -33,-98 -40,-140 -18,-106 -90,-329 -121,-374 -36,-52 -15,-93 49,-93 41,0 96,43 237,188 l 184,189 22,-83 c 24,-86 16,-229 -17,-315 -63,-161 109,-126 180,37 23,52 59,135 82,184 25,56 44,150 50,246 l 9,156 48,-116 c 55,-135 64,-178 85,-406 35,-384 -15,-761 -189,-1430 -17,-66 -37,-142 -43,-170 -18,-75 -89,-150 -146,-153 -27,-1 -79,-9 -115,-17 l -65,-15 33,98 c 18,53 48,133 67,177 112,255 142,613 74,880 -28,110 -52,184 -52,165 -1,-19 -9,-35 -17,-35 -8,0 -36,-45 -61,-99 -33,-73 -85,-132 -196,-222 -148,-121 -191,-140 -151,-64 74,137 35,579 -42,484 -14,-17 -53,-48 -88,-70 -115,-72 -376,-245 -464,-309 -135,-97 -133,-98 -172,64 -18,80 -50,169 -69,196 -20,28 -51,79 -69,115 -61,118 -94,79 -192,-225 -25,-77 -54,-167 -65,-200 -36,-104 -47,-316 -38,-676 5,-178 10,-198 51,-225 67,-44 150,5 98,57 -41,41 -48,617 -9,784 47,207 116,416 129,394 8,-11 19,-64 26,-117 7,-54 19,-106 27,-117 8,-11 20,-54 26,-94 18,-119 70,-174 138,-148 31,11 56,28 56,36 0,8 38,35 85,58 47,24 90,49 95,56 6,8 79,56 163,108 83,51 176,125 206,164 70,93 89,88 68,-15 -10,-47 -26,-130 -36,-185 -30,-163 -45,-219 -65,-244 -24,-30 -2,-106 30,-106 140,1 504,316 482,417 l -11,53 27,-50 c 20,-38 23,-86 10,-200 -9,-82 -19,-185 -24,-228 -8,-83 -45,-262 -65,-312 -6,-16 -23,-66 -36,-110 -13,-44 -37,-110 -52,-147 -24,-58 -23,-69 5,-90 17,-12 28,-33 24,-45 -17,-51 47,-69 99,-28 62,48 95,51 95,9 0,-29 3,-29 31,0 18,17 54,36 80,43 31,8 49,27 49,52 0,29 11,37 45,32 31,-4 43,-17 39,-43 -4,-24 2,-32 16,-23 13,8 18,27 11,43 -6,17 -1,48 11,70 21,39 114,384 126,467 3,22 16,72 28,110 234,729 80,1820 -257,1820 -45,0 -46,-4 -18,-106 24,-85 -4,-391 -45,-489 -22,-53 -23,-50 -39,64 -36,262 -131,419 -179,296 -46,-118 -103,-221 -160,-292 -67,-80 -113,-99 -76,-30 12,23 48,129 78,235 31,106 71,232 88,280 154,421 166,1380 22,1663 -87,170 -277,359 -363,359 -37,0 -40,-14 -42,-215 z"
       id="path9" />
    <path
       d="m 4341,9601 c -71,-41 -133,-86 -137,-100 -17,-50 44,-60 111,-18 91,56 99,38 33,-80 -84,-149 -27,-205 127,-123 41,22 85,40 97,40 41,0 126,81 116,109 -20,50 -65,50 -157,-2 -108,-60 -110,-54 -30,88 103,182 51,209 -160,86 z"
       id="path10" />
    <path
       d="m 1902,8579 c -89,-66 -162,-128 -162,-137 0,-23 102,-2 149,31 78,53 78,17 2,-161 -41,-94 -10,-146 75,-125 68,17 254,167 254,204 0,64 -62,53 -150,-29 -145,-134 -147,-110 -9,117 79,130 95,171 77,193 -37,45 -65,34 -236,-93 z"
       id="path11" />
    <path
       d="m 2389,8597 c -164,-86 -215,-167 -98,-153 65,7 70,4 59,-33 -53,-165 121,-200 219,-44 34,54 -32,107 -77,62 -59,-59 -60,-13 -2,71 31,44 52,83 48,86 -4,3 -22,16 -39,29 -25,19 -48,15 -110,-18 z"
       id="path12" />
    <path
       d="m 5052,7803 c -6,-9 -60,-28 -122,-43 -141,-34 -160,-114 -25,-106 70,5 98,-17 57,-43 -93,-57 -125,-251 -43,-251 41,0 221,68 221,83 0,9 19,17 42,17 46,0 43,36 -7,68 -24,15 -53,11 -106,-15 -41,-19 -78,-30 -83,-25 -12,11 98,174 142,211 43,35 40,75 -7,100 -46,25 -56,26 -69,4 z"
       id="path13" />
  </g>
</svg>
