<?xml version="1.0" encoding="UTF-8" standalone="no"?>
<svg
   version="1.0"
   width="241.43575pt"
   height="279.78262pt"
   viewBox="0 0 241.43575 279.78262"
   preserveAspectRatio="xMidYMid"
   id="svg95"
   sodipodi:docname="president.svg"
   inkscape:version="1.3.2 (091e20e, 2023-11-25, custom)"
   xmlns:inkscape="http://www.inkscape.org/namespaces/inkscape"
   xmlns:sodipodi="http://sodipodi.sourceforge.net/DTD/sodipodi-0.dtd"
   xmlns="http://www.w3.org/2000/svg"
   xmlns:svg="http://www.w3.org/2000/svg">
  <defs
     id="defs95" />
  <sodipodi:namedview
     id="namedview95"
     pagecolor="#ffffff"
     bordercolor="#000000"
     borderopacity="0.25"
     inkscape:showpageshadow="2"
     inkscape:pageopacity="0.0"
     inkscape:pagecheckerboard="0"
     inkscape:deskcolor="#d1d1d1"
     inkscape:document-units="pt"
     inkscape:zoom="1.4328176"
     inkscape:cx="155.6374"
     inkscape:cy="116.55357"
     inkscape:window-width="1278"
     inkscape:window-height="1360"
     inkscape:window-x="-7"
     inkscape:window-y="0"
     inkscape:window-maximized="0"
     inkscape:current-layer="g95" />
  <metadata
     id="metadata1">
Created by potrace 1.10, written by Peter Selinger 2001-2011
</metadata>
  <g
     transform="matrix(0.05,0,0,-0.05,-26.207476,289.01204)"
     fill="#000000"
     stroke="none"
     id="g95">
    <path
       id="path1"
       d="M 2578.7402,5780.2344 C 2488.2451,5779.9854 2400,5772.498 2400,5757.998 c 0,-13.9984 -21.002,-19.0078 -52.002,-13.0078 -31.9984,6 -54.9921,0.01 -61.9921,-16.9922 -6,-15.9984 -35.9981,-28.0078 -67.9981,-28.0078 -32,0 -58.0078,-8.9804 -58.0078,-19.9804 0,-11 -36.0098,-25.0215 -80.0098,-32.0215 -48.9984,-8 -79.9804,-23.9879 -79.9804,-40.9863 0,-15 -22.0098,-35.9922 -50.0098,-46.9922 -27,-10 -68.9883,-41.0235 -92.9883,-69.0235 -24,-27.9984 -54.998,-50.9765 -67.998,-50.9765 -31,0 -109.0137,-69.002 -109.0137,-97.002 0,-13 -16.9957,-22.998 -38.9941,-22.998 -21,0 -51.9981,-13.0016 -67.9981,-30 -17,-16 -39.998,-30 -52.998,-30 -12,0 -45.0094,-27.0016 -73.0078,-60 -28,-33 -58.9903,-60 -69.9903,-60 -11,0 -32.0254,-11.0196 -46.0254,-25.0196 -14,-14 -44.9941,-37.9941 -68.9941,-53.9941 -53,-37 -53.9906,-74.9961 -1.9922,-90.9961 22,-7 39.9902,-30.0059 39.9902,-51.0059 0,-20.9984 18.0196,-49.9843 40.0196,-63.9843 21.9984,-13 39.9902,-40.0016 39.9902,-60 0,-19 7,-35.0098 15,-35.0098 8,0 25.002,-22.0137 37.002,-49.0137 29.9984,-63.9984 1.9925,-90.9961 -96.0059,-90.9961 H 1260 v -220.9863 -222.0117 l 110.0098,-104.0039 c 59.9984,-58 109.9804,-119 109.9804,-135 0,-16 19.0118,-41.9746 42.0118,-58.9746 114.9968,-80.9984 118.0078,-86.0075 118.0078,-246.0059 0,-88.9984 7.9804,-153.0176 19.9804,-153.0176 11,0 20.0098,-39.9785 20.0098,-87.9785 0,-52.9984 9.9902,-92.0019 24.9902,-97.0019 14,-5 -18.982,-50.0114 -79.9804,-110.0098 -58,-55.9984 -105,-112.0137 -105,-124.0137 0,-11 -9.0098,-20.9765 -20.0098,-20.9765 -11,0 -20.0098,-27.0016 -20.0098,-60 0,-33 -8.9804,-60 -19.9804,-60 -11,0 -20.0098,-27.0016 -20.0098,-60 0,-33 -10.002,-60 -22.002,-60 -11.9984,0 -16.9863,-14.0016 -10.9863,-30 7,-17 -6.0078,-62.0157 -28.0078,-101.0157 -21,-38.9984 -38.9941,-82.9902 -38.9941,-99.9902 0,-16 -9.0098,-29.0039 -20.0098,-29.0039 -11,0 -20.0098,-13 -20.0098,-30 0,-16 -8.9804,-30 -19.9804,-30 -11,0 -20.0098,-27 -20.0098,-60 0,-33 -9.0098,-60 -20.0098,-60 -11,0 -19.9804,-17.9918 -19.9804,-39.9902 0,-17.0604 -5.4754,-31.4516 -13.0371,-37.1778 2.5659,-7.2983 4.4986,-14.8538 6.2402,-22.2949 2.4902,-11.7284 3.3935,-23.7045 3.9551,-35.6543 0.4887,-4.9971 0.2309,-9.9138 -0.293,-14.7949 1.8081,-5.1258 3.1348,-11.5806 3.1348,-21.0938 0,-35.9984 46.9859,-89.0039 78.9843,-89.0039 11,0 21.0059,-16.9941 21.0059,-38.9941 0,-21 14,-51.9981 30,-67.9981 34,-33.9984 39.9863,-73.0078 10.9863,-73.0078 -11,0 -41.9941,23.0098 -68.9941,50.0098 -51,50.9984 -191.9824,73 -191.9824,30 0,-11 -18.0196,-20.0098 -40.0196,-20.0098 -21.9984,0 -39.9902,-8.9804 -39.9902,-19.9804 0,-11 -22.01009,-20.0098 -50.00977,-20.0098 -26.99952,0 -49.98046,-9.0098 -49.98046,-20.0098 0,-11 -22.01025,-19.9804 -50.00977,-19.9804 -26.99952,0 -50.00977,-9.0098 -50.00977,-20.0098 0,-11 -17.99055,-20.0098 -39.99023,-20.0098 -21.99968,0 -39.99023,-9.9765 -39.99023,-20.9765 0,-12 -21.02181,-19.0254 -47.02149,-16.0254 -73.99872,10 -111.99398,-33.9942 -98.99414,-113.9942 8.99984,-53.9984 4.01921,-68.9941 -19.98047,-68.9941 -23.99952,0 -34.00406,-34.0094 -44.0039,-148.0078 -15.99984,-169.9968 1.99462,-311.9824 38.99414,-311.9824 14.99968,0 34.99625,-36.0098 45.99609,-80.0098 2.32666,-8.8635 2.54281,-14.2911 3.98438,-21.709 7.54853,1.0901 10.61257,-1.5288 13.9746,-12.2461 1.60816,-5.1226 4.59415,-9.7619 6.15235,-14.9121 2.51434,-6.6176 5.04369,-13.2236 6.88476,-20.0683 1.21294,-4.1532 2.44654,-8.2673 4.39454,-12.1583 1.61599,-3.9723 3.09604,-7.9334 5.21484,-11.6894 2.88196,-4.5338 5.90671,-9.68885 8.70117,-14.58985 3.8561,-6.48727 7.95816,-12.95738 10.48828,-20.09765 2.14212,-6.16941 3.76454,-12.48911 3.98438,-18.98438 14.76081,-4.72408 21.21093,-12.23507 21.21093,-23.55469 0,-15.99968 8.01774,-30 18.01758,-30 9.99984,0 24.99235,-35.98126 31.99219,-79.98046 C 757.99984,771.01041 774.01204,740 792.01172,740 c 14.99968,0 27.97851,-17.99071 27.97851,-39.99023 0,-21.99968 9.00993,-40.01954 20.00977,-40.01954 10.99984,0 20.00977,-17.9868 20.00977,-40.98632 0,-21.99968 14.00016,-45.00196 30,-52.00196 16.99968,-5.99984 30,-28.01399 30,-49.01367 0,-20.99968 8.98078,-37.99805 19.98046,-37.99805 C 950.99007,479.99023 960,461.99968 960,440 c 0,-21.99968 9.00993,-39.99023 20.00977,-39.99023 10.99968,0 19.98046,-17.02376 19.98046,-39.02344 C 999.99023,289.98745 1074.9973,260 1253.9941,260 c 56.4114,0 91.5349,-1.48224 116.9532,-4.45313 6.7251,2.05478 13.679,3.2189 20.6543,3.98438 5.0492,0.506 10.1051,0.67102 15.1757,0.79102 4.0022,0.08 8.0089,0.10238 12.0118,0.11718 7.0504,0.3274 14.0244,-0.69608 20.9179,-2.08008 5.2873,-0.74028 10.4196,-2.33984 15.6446,-3.33984 7.5052,-1.1404 14.5238,-4.37597 21.914,-5.91797 8.7795,-2.1426 17.6165,-4.04263 26.3672,-6.29883 5.9788,-2.12828 12.2309,-2.97215 18.4277,-4.16015 10.1515,-1.9544 20.0445,-5.00504 30.1172,-7.29492 9.3683,-1.956 18.6678,-4.24619 28.125,-5.74219 8.304,-0.942 16.5748,-2.12185 24.8438,-3.33985 7.8192,-1.12028 15.6769,-1.6439 23.4961,-2.7539 5.6172,-1.5016 11.3134,-2.07753 17.0801,-2.51953 5.4845,-0.408 10.9677,-0.62172 16.4648,-0.76172 0.5493,-0.0102 1.0923,-0.12392 1.6406,-0.14649 5.887,0.23239 11.5399,-0.36172 17.4024,-0.32226 3.3715,1.23948 6.3028,2.65277 9.873,3.80859 14.1668,4.5864 28.061,9.87541 42.3926,14.03321 16.0267,4.35274 32.456,6.7589 48.9551,8.3789 10.7645,0.986 21.5699,1.34874 32.373,1.55274 12.9419,0.192 25.9046,0.18507 38.8477,0.20507 2.4979,0.003 5.0021,-0.003 7.5,0 0.2267,0 34.379,-0.68362 25.3125,0.23438 2.0125,0.8058 32.4104,5.37058 16.9336,3.01758 4.8527,1.4764 14.914,5.15857 21.3281,7.35351 -8.1881,-3.40994 26.6525,9.6859 17.4609,7.00196 0.8249,0.45349 1.7424,0.68567 2.5782,1.11328 4.6394,13.67909 14.6071,30.15881 25.2246,50.53711 15.9984,30.99952 30,82.00243 30,112.00195 0,35.99936 11,54.99023 30,54.99023 16.9984,0 30,13.00032 30,30 0,37.99952 60.9859,110.00977 93.9843,110.00977 15,0 26.0157,12.01188 26.0157,27.01172 0,29.99952 107.982,132.97851 139.9804,132.97851 11,0 20.0098,8.02165 20.0098,17.02149 0,9.99984 36.0059,23.99625 81.0059,30.99609 43.9984,7 85.9937,25.98274 91.9921,41.98242 8.5,21.99968 225.2415,33.26563 439.8633,33.51563 214.6218,0.25 427.1485,-10.51985 427.1485,-32.51953 0,-17.99968 27.9902,-33.98258 69.9902,-41.98242 50.9984,-9.99984 69.9902,-24.00634 69.9902,-51.00586 0,-20.99968 18.0196,-48.9886 40.0196,-62.98828 21.9984,-12.99984 39.9902,-37.00212 39.9902,-52.00196 0,-15.99968 19.0117,-45.01008 42.0117,-65.00976 23,-19.99968 36.9961,-42.99821 30.9961,-52.99805 -5,-8.99984 15.9883,-36.98876 47.9883,-62.98828 33,-25.99968 59.0039,-60.02571 59.0039,-76.02539 C 3780,371.98681 3828.0098,320 3860.0098,320 c 11.6317,0 17.2019,-20.50951 15.6445,-46.75781 6.9034,0.0616 13.8105,0.10378 20.7129,0.11718 13.6282,0.7534 26.7099,-2.98036 39.7851,-5.97656 12.7736,-2.88154 25.4194,-6.28593 37.9688,-10.01953 5.7514,-2.2028 9.6638,-4.2348 15.498,-4.7168 11.278,-0.87134 22.2184,-3.63274 33.0762,-6.67968 7.76,-1.2416 15.3476,-5.21127 23.1152,-5.94727 6.3512,-1.5586 12.8866,-2.07894 19.3946,-2.46094 14.4444,-0.18 28.3767,-4.0925 42.5097,-6.5039 5.4764,-1.064 11.0542,-1.22685 16.6114,-1.46485 13.8846,-0.027 27.3221,-3.71307 40.9277,-5.88867 5.388,-0.9 10.8626,-1.35273 16.3184,-1.55273 10.3484,-0.376 20.7011,-0.40875 31.0547,-0.46875 14.7918,0.6366 29.1753,-2.86124 43.4179,-6.24024 16.0177,-3.13497 35.1679,-13.03163 48.8672,-25.54687 1.2527,-0.0406 2.456,-0.009 3.7207,-0.0586 6.3818,-0.503 12.1859,-2.61802 18.1055,-4.48242 2.8874,-0.0417 5.7269,-0.32596 8.5254,-0.76172 5.8609,-9.8e-4 11.7218,-0.003 17.5781,0 11.53,0.02 23.0405,0.0186 34.5703,0.0586 8.772,0.038 17.5677,0.11297 26.3379,0.29297 7.9044,0.182 15.7993,0.38587 23.6719,1.17187 8.2244,0.7726 16.2122,2.24244 24.2578,4.30664 12.6472,1.224 25.1484,2.06841 37.8516,1.81641 10.2076,0.186 20.4216,0.46469 30.6152,1.05469 13.5246,0.80018 27.0629,1.80096 40.4297,4.10156 12.418,2.0544 24.6933,5.02169 37.1777,6.67969 -1.6718,-0.8244 -6.7458,-3.14094 -5.0098,-2.46094 2.4014,0.94212 4.7487,2.04343 7.1192,3.07617 -117.1742,-9.07418 -309.8731,-3.1165 -309.8731,15.32227 0,10.99968 -42.982,19.98046 -94.9804,19.98046 -157.9984,1 -249.0039,21.00634 -224.0039,51.00586 22.9984,27.99968 16.9804,118.99837 -10.0196,142.99805 -10,8.99984 -9.9961,4.01726 -0.9961,-11.98242 11,-18.99968 8.9981,-24.00375 -7.0019,-14.00391 -13,7.99984 -22.9981,31.99462 -22.9981,53.99414 0,22.99968 -19.9781,47.00798 -50.9765,58.00782 -55,20.99952 -90.0258,82.98078 -53.0274,94.98046 13,5 24.0235,30.01986 24.0235,55.01954 0,25.99952 7.9859,53.00406 18.9843,59.0039 10,6 23.9922,60.99706 31.9922,120.9961 8,66.99888 23.0274,109.98046 38.0274,109.98046 16,0 29.998,46.01137 37.998,125.00977 8,68.9984 21.9883,128.0117 32.9883,132.0117 11,3 20.0098,32.9805 20.0098,64.9805 0,37 10.0039,58.0078 29.0039,58.0078 19,0 31.9824,34.0098 41.9824,110.0098 7,60.9984 21.9961,109.9804 30.9961,109.9804 10,0 18.0176,14.0016 18.0176,30 0,22 18.0039,29.0157 59.0039,26.0157 32.9984,-2 74.9781,11 95.9765,30 21,18.9984 43.0137,28.998 49.0137,22.998 6,-6 40.9883,28.0016 77.9883,75 62.4984,79.9984 85.939,110.3809 112.0605,110.4492 15.6738,0.041 32.3219,-10.8238 58.9453,-28.4472 29,-19 67.0157,-35.0059 86.0157,-36.0059 19,-2 49.9941,-15.9961 68.9941,-30.9961 18,-16 43.9785,-38.0137 57.9785,-49.0137 13,-12 52.0133,-20.9804 87.0117,-19.9804 35,0 61.0079,-4.0196 58.0079,-10.0196 -2,-5 11.9937,-26 31.9921,-45 20,-18.9984 37.002,-29.9941 37.002,-23.9941 0,25 55.9957,-44.984 68.9941,-86.9824 7,-24 23.0176,-44.0039 33.0176,-44.0039 13,0 12.9961,-12.0137 0.9961,-34.0137 -12,-21 -11.9961,-52.0059 -0.9961,-81.0059 31,-82.9984 -82.0016,-361.9922 -165,-406.99215 -21,-10.99984 -37.0019,-37.00423 -37.0019,-59.00391 C 4940.0098,877.99446 4931,860 4920,860 c -11,0 -17.9961,-7.00016 -15.9961,-15 3,-7.99984 -7.0098,-35.00032 -20.0098,-60 -13.9984,-24.99968 -17.9902,-45 -9.9902,-45 9,0 6.9902,-7.00016 -5.0098,-15 -37.9984,-26.99952 -139.9843,-172.99773 -108.9843,-157.99805 22.9984,11.99984 21.9785,8.98406 -2.0215,-11.01562 -18,-13.99984 -31.9883,-32.98258 -32.9883,-41.98242 0,-8 -7,-35.00048 -15,-60 -20,-62.99904 -24.0117,-77.9951 -27.0117,-128.99414 -2,-34.99952 -15.9801,-45.02149 -57.9785,-47.02149 -48,-1 -45.0082,-3.98665 24.9902,-25.98633 10.9595,-3.36089 17.1906,-5.49277 25.1074,-8.05664 0.446,0.27345 0.8659,0.58566 1.3184,0.84961 10.1992,6.89118 20.77,12.96594 31.6992,18.54492 14.3594,8.172 29.1979,15.77933 45.4395,19.45313 3.9282,0.812 1.6722,0.38578 -0.6446,-0.9082 10.7798,4.89218 21.5391,10.1117 33.3399,12.1289 10.9784,1.6614 21.8977,2.87438 32.9297,3.98438 7.9885,1.09477 15.9625,2.44555 23.9648,3.48632 C 4846.3233,311.87383 4851.9536,320 4860,320 c 11,0 20.0098,17.99071 20.0098,39.99023 0,21.99968 8.9859,40.01954 18.9843,40.01954 11,0 14.9981,13.00016 7.9981,30 -6,16.99968 3.0074,34.98242 21.0058,41.98242 18,6.99984 31.9922,29.01008 31.9922,50.00976 0,20.99968 10.0059,37.99805 21.0059,37.99805 12,0 17.0156,7.99235 11.0156,16.99219 -6,8.99984 4.9942,35.01594 23.9942,56.01562 48.9984,55.9992 83.9941,122.00244 83.9941,157.00196 0,15.99968 9.0098,30 20.0098,30 11,0 19.9804,13.99641 19.9804,30.99609 0,27.97062 12.2657,48.36838 40.8106,63.80859 0.3348,5.14915 0.7633,10.28923 1.084,15.43946 3.5692,16.52726 9.4051,32.35381 18.7207,46.49414 5.1202,11.06153 12.3956,21.14485 19.9804,30.55665 1.0717,1.1996 2.0386,2.4856 3.1055,3.6914 2.1469,40.7938 28.5555,109.0137 49.3066,109.0137 15,0 27.0118,10.998 27.0118,22.998 0,13 13.9922,40.0039 31.9922,59.0039 34.9984,39 22.996,317.9883 -14.004,317.9883 -9.9984,0 -17.9882,36.0098 -17.9882,80.0098 0,59.9984 -8.0215,79.9804 -32.0215,79.9804 -25,0 -28.9844,12.002 -18.9844,52.002 10,40.9984 3.9922,53.0215 -28.0078,62.0215 -23,6 -40.9863,18.9746 -40.9863,28.9746 0,10 -22.0098,12.0097 -50.0098,5.0097 -34,-7.9984 -52.9961,-3.0062 -60.9961,16.9922 -7,19 -29,26.0098 -60,20.0098 -28,-6 -49.0137,0.01 -49.0137,13.0078 0,12 -27,22.002 -60,22.002 -32.9984,0 -60,8.9804 -60,19.9804 0,11 -27,20.0098 -60,20.0098 -32.9984,0 -60,9.0098 -60,20.0098 0,11 -35.982,19.9804 -79.9804,19.9804 -44,0 -80.0098,5.0157 -80.0098,11.0157 0,18.9984 97.0078,108.9843 118.0078,108.9843 12,0 15.9902,12.0118 9.9902,27.0118 -0.1368,0.3422 -0.054,0.7094 -0.1757,1.0546 -1.7636,7.573 -3.0376,15.2804 -3.9551,23.0274 -2.1562,15.3646 -0.9393,30.3095 0.4687,45.7031 1.7319,7.9237 5.2558,14.6404 8.4375,21.5918 -1.9265,10.6604 -3.1637,22.1542 -3.3691,34.7168 -0.074,4.5544 -0.1309,9.1324 -0.3809,13.6816 -0.05,1.1772 -0.099,1.8525 -0.088,2.2559 -3.574,8.831 -7.0846,17.5522 -7.8222,27.334 -0.1656,1.5172 -2.52,10.7279 -3.9258,13.8281 -1.4362,6.5452 -1.9976,8.6342 -2.5488,10.8692 -0.3264,0.3876 -0.5658,0.7665 -0.9082,1.1425 -6.7366,7.7518 -13.7945,16.8421 -20.5371,25.3711 -9.5652,11.1986 -20.0201,21.5065 -29.5313,32.7539 -43.3336,51.2435 -49.1954,98.8282 -33.5156,129.668 -0.5712,3.7797 -1.6433,6.0979 -2.1387,9.9902 -7,55 -20.9961,100.0196 -30.9961,100.0196 -9,0 -17.0215,17.9902 -17.0215,39.9902 0,22 -8.9804,39.9902 -19.9804,39.9902 -11,0 -20.0098,23.0098 -20.0098,50.0098 0,28 -9.0098,50.0098 -20.0098,50.0098 -11,0 -19.9804,35.982 -19.9804,79.9804 0,44 -9.0098,80.0098 -20.0098,80.0098 -11,0 -20.0098,31.9918 -20.0098,69.9902 0,39 -8.9804,70.0196 -19.9804,70.0196 -11,0 -20.0098,27 -20.0098,60 0,46.9984 -8.9918,60 -39.9902,60 -22,0 -40.0196,8.9804 -40.0196,19.9804 0,11 -13,20.0098 -30,20.0098 -15.9984,0 -30,9.0098 -30,20.0098 0,11 -21.982,19.9804 -49.9804,19.9804 -27,0 -50.0098,9.0098 -50.0098,20.0098 0,11 14,20.0098 30,20.0098 22,0 30,23 30,90 0,52.9984 8.9996,90 22.998,90 15,0 17.9942,25.982 8.9942,79.9804 -11,71 -7.9922,80.0098 28.0078,80.0098 22,0 39.9902,8.0137 39.9902,19.0137 0,10 18.0196,23.9961 40.0196,30.9961 21.9984,7 39.9902,24.0019 39.9902,37.0019 0,13 20.0078,36.9942 43.0078,53.9942 24,15.9984 93.9805,79.0074 154.9805,141.0058 l 112.0019,110.9766 -7.0019,194.0039 c -7,192.9968 -16.9821,215.0195 -79.9805,175.0195 -23,-14 -22.0156,-20.0113 3.9844,-35.0097 28,-16 28.0199,-23.002 2.0215,-67.002 -16,-28 -39.0274,-74.0039 -53.0274,-104.0039 -13,-29 -38.9746,-56.9922 -58.9746,-61.9922 -24,-7 -30.998,-22.0035 -22.998,-52.0019 7,-27 -1.002,-45.9942 -22.002,-53.9942 -17,-7 -32.0215,-23.9941 -32.0215,-38.9941 0,-14 -31.9902,-67.0094 -69.9902,-118.0078 -39,-50 -69.9902,-100.0059 -69.9902,-111.0059 0,-11 -9.0098,-20.0098 -20.0098,-20.0098 -11,0 -20.0098,18.0196 -20.0098,40.0196 0,21.9984 9.9981,39.9902 22.9981,39.9902 14,0 18.0156,23.9996 11.0156,67.998 -7,47 -3,72.0137 15,79.0137 15,6 21.9922,29.9801 16.9922,57.9785 -5,27 3.0137,61.0215 19.0137,77.0215 15,16 33.9824,72.9981 41.9824,127.9981 7,54.9984 22.0176,102.9922 33.0176,106.9922 11,3 19.9804,21.9902 19.9804,39.9902 0,19 18.0196,47.0176 40.0196,63.0176 21.9984,15.9984 39.9902,43 39.9902,60 0,16.9984 17.9918,44 39.9902,60 22,15.9984 40.0196,44.982 40.0196,64.9804 0,20 14,41.0176 30,48.0176 15.9984,6 30,24.9879 30,40.9863 0,16 18.9863,45.0176 40.9863,63.0176 44.9984,36 35.9906,102.9785 -13.0078,102.9785 -15,0 -27.9785,8.0137 -27.9785,19.0137 0,10 -17.0235,23.9961 -39.0235,30.9961 -33.9984,10 -282.9899,247.0133 -392.9883,372.0117 -65.9984,75.9984 -185.0117,177.9785 -207.0117,177.9785 -12,0 -20.9765,8.0176 -20.9765,18.0176 0,11 -27.0016,24.9922 -60,31.9922 -33,7 -60,24.9902 -60,39.9902 0,15 -33.0098,32.0196 -80.0098,40.0196 -44,7 -80.0098,21.9922 -80.0098,31.9922 0,9.9984 -30.998,17.9882 -67.998,17.9882 -38,0 -71.9961,9.9981 -75.9961,22.9981 -6,17 -114.0048,22.0137 -390,19.0137 -253.9968,-3 -386.0098,1.9937 -395.0098,16.9921 -9,14.5 -101.751,21.4893 -192.2461,21.2403 z M 2456.8652,5611.25 c 91.8734,-1 270.6396,-10.7637 618.1348,-30.2637 586.9904,-32.9984 725.9927,-93.9829 1135.9863,-500.9765 223.9968,-222.9968 254.0219,-270.0235 204.0235,-324.0235 -14,-14 -48.0016,-74.9961 -75,-135.9961 -27,-59.9984 -66.0196,-121.9961 -85.0196,-135.9961 -18.9984,-14.9984 -34.9804,-40.0078 -34.9804,-58.0078 0,-25.9984 -5.0137,-26.9867 -34.0137,-2.9883 -18,15 -28.0098,17.0137 -20.0098,4.0137 8,-13 0,-28.0137 -15.9961,-34.0137 -39.9984,-14.9984 -150,-191.0078 -150,-238.0078 0,-20.9984 -7.9859,-31.9863 -18.9843,-25.9863 -10,6 -23.9961,-7.0039 -30.9961,-29.0039 -7,-22 -20.9961,-39.9902 -30.9961,-39.9902 -11,0 -19.0137,-18.0196 -19.0137,-40.0196 0,-21.9984 -9.0098,-39.9902 -20.0098,-39.9902 -11,0 -19.9804,-16.9996 -19.9804,-37.998 0,-21 -13.9961,-43.0098 -30.9961,-50.0098 -17,-6 -26.0137,-20.9922 -19.0137,-31.9922 7,-11 0,-20.0098 -14.0039,-20.0098 -15,0 -28.9922,-23.9941 -31.9922,-53.9941 -2,-30 -15.0039,-60.9902 -29.0039,-69.9902 -14,-8 -16.998,-15.9961 -7.998,-15.9961 9.9984,0 6.0019,-13.9961 -7.9981,-30.9961 -20,-25 -29.0039,-26.0098 -44.0039,-5.0098 -11,17 -13.0098,10.9863 -5.0098,-19.0137 12,-42.9984 -52.9863,-166.9824 -85.9863,-161.9824 -89.9984,13 -263.9941,-6.9961 -263.9941,-30.9961 0,-28 -163.0146,-52.0137 -440.0098,-64.0137 -70.9984,-3 -162.9957,-10 -203.9941,-15 -57,-6.9984 -71.0176,-2.9863 -63.0176,19.0137 7,17 -2.002,27.9785 -22.002,27.9785 -18,0 -28.998,-6.9961 -22.998,-15.9961 5,-9 -16.9844,-12.998 -48.9844,-7.998 -34,5 -59.0039,21.0035 -59.0039,37.0019 0,18 -9.9957,23 -23.9941,15 -48,-29.9984 -116.0157,-21.0023 -116.0157,15.9961 0,20 -8.9804,36.0059 -19.9804,36.0059 -11,0 -20.0098,-10.002 -20.0098,-22.002 0,-16.9984 -7.0117,-16.996 -27.0117,-0.996 -15,12.9984 -32.9879,15.9941 -40.9863,8.9941 -7,-8 -18.9903,6 -24.9903,30 -6,24 -25.0156,44.0039 -41.0156,44.0039 -15,0 -22.9961,-9.0098 -15.9961,-20.0098 7,-11 3.998,-19.9804 -7.002,-19.9804 -10.9984,0 -13.998,34.9996 -7.998,82.998 8,62.9984 4.9961,78.9965 -14.0039,67.9981 -13,-9 -20,-31.9981 -15,-52.9981 6,-21 1.0043,-37.998 -8.9941,-37.998 -11,0 -18,34 -15,75 3.9984,48.9984 -1.9922,72.9902 -16.9922,69.9902 -14,-3 -19.0102,8.9863 -12.0118,25.9863 7,17 -1.9843,42.0196 -18.9843,55.0196 -17,12.9984 -37.0078,60.0078 -43.0078,103.0078 -7,42.9984 -25.0118,93.9726 -42.0118,111.9726 -15.9984,17 -29.0039,50.0133 -29.0039,72.0117 0,22 -6.0039,46.9942 -14.0039,53.9942 -32.9984,33 -59.9941,151.0035 -38.9941,172.0019 15,15 11.0199,21.0059 -12.9785,21.0059 -20,0 -34.0137,15.9957 -34.0137,38.9941 0,22 -17.9879,48.9961 -40.9863,60.9961 -22,12 -35.0078,31.0157 -28.0078,41.0157 6,10.9984 -3.0098,24.9961 -20.0098,30.9961 -17,6.9984 -30.9961,23.0097 -30.9961,35.0097 -1,13 -21.9883,74.9899 -47.9883,137.9883 -28,65.9984 -38.0156,114.9902 -26.0156,114.9902 12,0 5.0039,12.0118 -15.9961,27.0118 -40,29.9984 -57.0004,112.998 -22.002,112.998 12,0 9.9903,7.9883 -5.0097,17.9883 -21,13 -21.9844,26 -3.9844,60 13,24 31.9824,38.0254 41.9824,31.0254 10,-6 19.0137,2.982 19.0137,19.9804 0,17 9.0098,32.0137 20.0098,34.0137 11,1 28.9902,4.002 39.9902,7.002 11,3 29.9863,5.998 40.9863,7.998 12,1 16.0235,11.002 9.0235,22.002 -7,11 -3.0059,19.9804 8.9941,19.9804 11,0 21.0059,13.0016 21.0059,30 0,16 31.9902,43.0055 69.9902,59.0039 39,16 69.9902,39.0059 69.9902,51.0059 0,12 6.9961,18.0117 15.9961,12.0117 9,-5 41.0133,16.9844 72.0117,48.9844 30,33 67.9981,59.0039 82.9981,59.0039 15,0 34.0078,11.9863 43.0078,25.9863 17,28 206.0059,124.0078 231.0059,118.0078 8,-2 15,9.0196 15,25.0196 0,15.5 4.982,23.2363 96.8554,22.2363 z m -983.6425,-986.6309 c 1.029,-0.6682 1.9707,-2.1914 2.7832,-4.6289 6,-15.9984 26.9937,-44.9922 46.9921,-61.9922 29,-25.9984 37.002,-61.9918 37.002,-174.9902 0,-81.9984 9.0098,-142.998 20.0098,-142.998 11,0 19.9804,-53.0016 19.9804,-120 0,-67 9.0098,-120 20.0098,-120 11,0 20.0098,-15.0137 20.0098,-34.0137 0,-31 -3.9981,-30.9902 -37.9981,5.0098 -69.9984,71.9984 -182.0215,313.9937 -182.0215,391.9921 0,91.875 37.7967,271.6443 53.2325,261.6211 z M 1620,4439.9902 c 11,0 20.0098,-13 20.0098,-30 0,-15.9984 8.9804,-30 19.9804,-30 11,0 20.0098,-13 20.0098,-30 0,-15.9984 9.0098,-30 20.0098,-30 11,0 19.9804,-17.9902 19.9804,-39.9902 0,-22 9.0098,-39.9902 20.0098,-39.9902 11,0 20.0098,-27.0016 20.0098,-60 0,-33 8.9804,-60 19.9804,-60 11,0 20.0098,-27.0016 20.0098,-60 0,-33 9.0098,-60 20.0098,-60 12,0 14.998,-21.0098 7.998,-50.0098 -8,-31 -4.0082,-50.0098 9.9902,-50.0098 12,0 22.002,-21.982 22.002,-49.9804 0,-27 9.0098,-50.0098 20.0098,-50.0098 11,0 19.9804,-27 19.9804,-60 0,-33 9.0098,-60 20.0098,-60 11,0 20.0098,-27 20.0098,-60 0,-33 8.9804,-60 19.9804,-60 11,0 20.0098,-26.0078 20.0098,-58.0078 0,-63.9984 45.0055,-111.9805 89.0039,-94.9805 16,6 34.9824,3.002 41.9824,-7.998 6,-10 47.0016,-19.0137 90,-19.0137 74,0 102,-23.0137 60,-49.0137 -29.9984,-19 77.0196,-110.9765 130.0196,-110.9765 26.9984,0 48.9843,-9.0098 48.9843,-20.0098 0,-11 23.0098,-20.0098 50.0098,-20.0098 28,0 50.0098,-8.9804 50.0098,-19.9804 0,-43 202.9859,-23.0043 243.9843,23.9941 32,38 41.0055,40 59.0039,15 15,-22 23.0016,-23.0121 30,-4.0137 7,16 51.004,25.0196 119.004,25.0196 58.9984,0 107.9882,8.9804 107.9882,19.9804 0,11 56.0235,20.0098 129.0235,20.0098 70.9984,0 133.9765,9.0098 140.9765,20.0098 7,11 70.0075,19.9804 141.0059,19.9804 72.9984,0 128.9941,9.0098 128.9941,20.0098 0,11 26.0118,20.0098 57.0118,20.0098 48.9984,0 61.9859,13 93.9843,90 20,49.9984 44.0274,90 53.0274,90 9,0 15.9961,17.9902 15.9961,39.9902 0,22 7.9898,39.9902 17.9882,39.9902 10,0 22.9961,32.0196 30.9961,70.0196 8,41.9984 24.0118,69.9902 42.0118,69.9902 16.9984,0 29.0039,18.9961 29.0039,45.9961 0,26 13.0039,63.9902 29.0039,84.9902 17,22 30,55.0055 30,74.0039 1,19 14.9922,35.0098 31.9922,35.0098 16.9984,0 29.0078,10.9902 28.0078,24.9902 -5,40 24,115.0196 45,115.0196 10,0 12.9765,17.9902 5.9765,39.9902 -9,28 -3.9863,39.9902 19.0137,39.9902 17,0 30.9961,8.0215 30.9961,17.0215 0,21 70.0117,102.9785 87.0117,102.9785 7,0 12.9785,-27 12.9785,-60 0,-32.9984 -8.9804,-60 -19.9804,-60 -11,0 -20.0059,-28.982 -21.0059,-64.9804 0,-36 -13,-82.0055 -30,-104.0039 -16,-21 -29.0039,-72.002 -29.0039,-112.002 0,-43 -12.9922,-84.9902 -31.9922,-99.9902 -23,-20 -28.998,-51.0094 -22.998,-118.0078 4,-50 -5.0059,-157.0079 -21.0059,-238.0079 -21,-106.9968 -23.0043,-151.9843 -6.0059,-168.9843 31,-31 27.002,-105.0055 -7.998,-134.0039 -16,-14 -30,-37.002 -30,-52.002 0,-16 -9.0098,-28.0078 -20.0098,-28.0078 -11,0 -19.9804,-16.9957 -19.9804,-38.9941 0,-21 -13.0016,-51.9981 -30,-67.9981 -48,-47.9984 -39,-92 15,-75 117.9968,39 174.0039,66.9942 164.0039,83.9942 -6,9.9984 -2.0098,17.9882 9.9902,17.9882 11,0 21.0059,-13 21.0059,-30 0,-15.9984 8.9804,-30 19.9804,-30 11,0 20.0098,-10.9902 20.0098,-24.9902 0,-14 13.9922,-51.9918 31.9922,-84.9902 77.9984,-147.9984 41.0042,-244.0141 -83.9942,-221.0157 -53.9984,10 -68.0039,21.0016 -59.0039,45 13,34 -39.9937,105.9961 -76.9921,105.9961 -12,0 -8.9942,-8.9898 6.0058,-17.9882 21,-14 24.9922,-48.0114 16.9922,-140.0098 -6,-66.9984 -3.9941,-121.9922 6.0059,-121.9922 9,0 18.998,-29.0098 22.998,-65.0098 6,-62.9984 8.9879,-64.9785 85.9863,-57.9785 89.9984,8 110.0039,17.9903 74.0039,39.9903 -25.9984,15.9984 -7.9925,40.0113 96.0059,125.0097 l 50.0098,40.9863 12.9785,-76.9921 c 8,-43 31.0035,-109.0118 52.0019,-147.0118 40,-71.9984 43.0215,-105.9953 17.0215,-211.9921 -17,-65 -92.0215,-109.9887 -92.0215,-54.9903 0,35 -38.9824,37.9883 -41.9824,2.9883 -1,-20 -3.0156,-20 -11.0156,0 -6,14 -26.9922,24.9902 -46.9922,24.9902 -22,0 -44.0117,23.0016 -57.0117,60 -12,33 -15.9942,60 -8.9942,60 6,0 -13.0078,19.0094 -43.0078,43.0078 -76.9984,61 -91.9746,27.007 -88.9746,-197.9882 3,-180.9984 -20.0074,-260.9981 -66.0058,-232.9981 -11,7 -16.0079,-8.0113 -13.0079,-35.0097 4,-26 12.0137,-42.002 19.0137,-37.002 6,6 27,-1.9922 45,-16.9922 29,-25 32.9883,-21.0195 32.9883,34.9805 0,47.9984 8.9957,62.0215 38.9941,62.0215 21,0 44.0059,8.9804 51.0059,19.9804 7,11 43.0059,20.0098 81.0059,20.0098 37.9984,0 68.9941,9.0098 68.9941,20.0098 0,11 9.0098,19.9804 20.0098,19.9804 11,0 19.9804,-9.9765 19.9804,-20.9765 0,-31 -51.9863,-79.0137 -85.9863,-79.0137 -17,0 -35.0156,-13 -41.0156,-30 -7,-16 -25.984,-30 -41.9824,-30 -17,0 -30.9961,-8.0137 -30.9961,-19.0137 0,-10 -20.0016,-24.9922 -45,-31.9922 -107.9984,-33.9984 -195,-127.9961 -195,-210.9961 0,-52.9984 -9.9961,-82.9976 -30.9961,-90.996 -17,-7 -29.0117,-27.004 -27.0117,-44.004 2,-17.9984 -0.01,-45.9898 -6.0059,-62.9882 -45,-132.9984 -50.9824,-164.0176 -41.9824,-198.0176 6,-25 -4.0016,-46 -30,-60 -26,-14 -37,-35.0039 -30,-59.00392 5,-20.99968 -0.012,-45.00211 -12.0117,-52.00195 -12,-6.99984 -22.002,-34.99642 -22.002,-60.9961 0,-25.99952 -9.0098,-53 -20.0098,-60 -11,-6.99984 -19.9804,-33.99657 -19.9804,-60.99609 0,-73.99888 -36.0059,-58.99286 -51.0059,21.00586 -8,38.99936 -20.9961,69.99023 -30.9961,69.99023 -10,0 -18.0176,23.00244 -18.0176,52.00196 0,36.99936 -8.0039,49.01546 -29.0039,41.01562 -20,-6.99984 -29.9804,5.98306 -34.9804,41.98242 -7,60.99847 -48.9961,82.99607 -60.9961,30.99607 -8,-32.99904 -10.0196,-32.98566 -25.0196,4.0137 -10,22 -30,48.0117 -45,57.0117 -17.9984,11 -23.9906,33.9844 -16.9922,63.9844 7,25 3.0059,52 -8.9941,60 -14,8 -14.0078,21.0156 1.9922,41.0156 13,15 18.0117,40.984 12.0117,56.9824 -34,89 51.9977,243.0157 165.9961,296.0157 182.9968,84.9984 256.002,114.9902 277.002,114.9902 10.9984,0 24.9937,13.9922 31.9921,31.9922 23,58.9984 11.9922,73.998 -28.0078,37.998 -21.9984,-19.9984 -39.9902,-30.0019 -39.9902,-22.0019 0,8 -68.9938,-22.002 -151.9922,-67.002 -83.9984,-43.9984 -163.0195,-80.9765 -175.0195,-80.9765 -31,0 -100.9805,-122.0016 -94.9805,-165 2,-19 -9.0156,-41.0215 -26.0156,-47.0215 -22,-9 -28.9981,-33.0016 -22.9981,-90 4,-43 0,-77.9883 -7.998,-77.9883 -9,0 -38.0059,-23.0098 -66.0059,-50.0098 -31.9984,-31.9984 -61.998,-45.998 -82.998,-37.998 -22,9 -31.9785,4 -27.9785,-15 4,-17 -15.0137,-28.9883 -49.0137,-32.9883 -30,-4 -54.9902,3 -54.9902,15 0,29 -66.0059,26.9824 -96.0059,-3.0176 C 2956.0039,1067.9879 2895,1133 2910,1175 c 5,14 1.0043,24.9902 -8.9941,24.9902 -10,0 -21.0196,-20 -25.0196,-45 l -5.9765,-45 -42.0118,42.0118 c -22.9984,22.9984 -66.0097,47.9902 -95.0097,54.9902 -29,8 -52.9981,28 -52.9981,45 0,17 -10.9902,27.998 -24.9902,22.998 -27,-9 -79.9961,121.0215 -60.9961,152.0215 7,10 2.0098,12.9766 -9.9902,5.9766 -13,-9 -37.0254,21.0039 -61.0254,74.0039 -50,113.9984 -93.9961,144.9925 -75.9961,53.9941 7,-35.9984 13.0078,-91.9859 13.0078,-123.9843 0,-37 10,-57.0118 30,-57.0118 21,0 30,-22.0039 30,-74.0039 0,-72.9984 77.9957,-185.9765 128.9941,-185.9765 12,0 31.0055,-16.0059 44.0039,-36.0059 20,-33 12.0086,-36.0019 -107.9882,-37.0019 -71,-1 -135.002,-11.0059 -142.002,-21.0059 -30,-45.99936 -117.0137,-46.9953 -139.0137,-0.9961 l -22.0019,45 -12.9785,-45 c -8,-25 -21,-45 -30,-45 -10,0 -23,-30.99087 -30,-69.99023 -8,-39.99936 -25.0157,-70.01954 -41.0157,-70.01954 -15.9984,0 -28.0078,-17.99055 -28.0078,-39.99023 0,-21.99968 -13,-39.99023 -30,-39.99023 -15.9984,0 -30,15.98078 -30,34.98046 -1,29.99952 -2.982,31.00929 -19.9804,5.00977 -14,-21.99968 -19.0176,-12.00881 -18.0176,39.99023 1,56.9992 4.0176,62.99952 18.0176,30 15,-34.99936 16.9843,-33.0031 18.9843,15.9961 0,32.99952 -6.9843,51.0039 -18.9843,44.0039 -11,-6.99984 -20.0098,2.01384 -20.0098,19.01368 0,16.99968 -7.9883,30.99609 -17.9883,30.99609 -29,0 -42.0195,-57.0008 -25.0195,-105 25,-71.99888 29.0082,-215.00977 5.0098,-215.00977 -12,0 -22.002,27.00064 -22.002,60 0,32.99952 -9.0098,60 -20.0098,60 -11,0 -19.9804,27.00064 -19.9804,60 0,32.99952 -9.0098,60 -20.0098,60 -11,0 -20.0098,23.01025 -20.0098,50.00977 0,27.99952 -8.9804,50.0098 -19.9804,50.0098 -11,0 -20.0098,30.9941 -20.0098,68.9941 0,38 -9.0098,74.0059 -20.0098,81.0059 -11,7 -19.9804,33.9961 -19.9804,60.9961 0,26.9984 -9.0098,48.9843 -20.0098,48.9843 -11,0 -20.0098,27.0016 -20.0098,60 0,33 -10.0019,60 -22.0019,60 -14,0 -17.9887,19.0098 -9.9903,50.0098 7,29 4.002,50.0098 -7.998,50.0098 -11,0 -20.0098,24.9863 -20.0098,55.9863 0,32 -16.9902,66.9957 -39.9902,83.9941 -22,16 -39.9902,35.0094 -39.9902,43.0078 0,24 127.982,-25.0039 154.9804,-59.0039 13,-16.9984 29.9981,-24.9882 37.9981,-17.9882 7,7 3.998,24.9941 -7.002,38.9941 -26.9984,33 -25.9785,101.0039 2.0215,119.0039 12,8 21.9942,59.984 23.9942,116.9824 1,57 11.9863,109.0133 25.9863,117.0117 13,9 17.0195,30.0137 10.0195,49.0137 -10,26 -19.0195,28.9863 -40.0195,10.9863 -23,-18.9984 -27.9785,-11.0097 -27.9785,39.9903 0,69.9984 12.0039,75.0199 74.0039,32.0215 37.9984,-27 45.9785,-27 72.9785,0 18,17.9984 67.0176,30 123.0176,30 50.9984,0 109.9863,8.9765 130.9863,20.9765 31,16 38.9941,14.0098 38.9941,-9.9902 0,-17 16.0098,-30.0039 35.0098,-29.0039 21,1 24.9902,5.0156 9.9902,11.0156 -14,6 -24.9902,36.9918 -24.9902,69.9902 0,33 -9.0137,53.9883 -19.0137,47.9883 -11,-7 -39.982,-1.9843 -64.9804,11.0157 -25,13.9984 -58.9977,30.9941 -75.9961,38.9941 -16,9 -28.0196,25.0035 -25.0196,37.0019 3,12 -4,22.002 -15,22.002 -11,0 -19.9804,14 -19.9804,30 0,17 -13.0016,30 -30,30 -22,0 -30,23.9938 -30,91.9922 0,73.9984 6,90.0058 30,81.0058 17.9984,-6.9984 30,4e-4 30,15.9961 0,15 4.9824,42.0055 11.9824,59.0039 15,39 -50.9801,44.9981 -87.9785,7.9981 -19,-19 -24.0235,-13.9902 -24.0235,20.0098 0,24.9984 -10.9902,41.9941 -24.9902,38.9941 -14,-3 -26.0078,8.9918 -28.0078,24.9902 -8,89.9984 -8,90.0098 -30,50.0098 -12,-22 -35.9981,-62 -52.9981,-90 -18.9984,-30 -28.9824,-87.0016 -26.9824,-150 2,-54.9984 -3.0117,-125.9996 -12.0117,-157.998 l -16.9922,-58.0079 -52.998,63.0176 c -29,35 -60.0235,62.9883 -69.0235,62.9883 -39.9984,0 -86.998,85.0016 -82.998,150 3,37 12.0058,63.0078 21.0058,58.0078 9,-6 15.9961,7.9961 15.9961,30.9961 0,22 10.0059,40.9863 21.0059,40.9863 12,0 17.0156,8.0215 11.0156,17.0215 -6,9 1.9883,33.9903 17.9883,54.9903 16,20.9984 29.0039,67.0078 29.0039,103.0078 1,35.9984 8.9844,64.9804 18.9844,64.9804 10,0 25.0215,36.0137 32.0215,79.0137 7,44 39.9785,114.0098 72.9785,155.0098 47.9984,59.9984 58.016,87.9961 48.0176,135.9961 -68,336.9936 -85.0059,396.9996 -126.0059,442.998 -38,43 -45,72.986 -45,198.9844 0,84.9984 -8.0098,148.0078 -20.0098,148.0078 -11,0 -19.9804,31.9918 -19.9804,69.9902 0,39 -9.0098,70.0196 -20.0098,70.0196 -11,0 -20.0098,31.9902 -20.0098,69.9902 0,39 9.0098,69.9902 20.0098,69.9902 z m 750,-1099.9804 c 17,0 30,-9.0098 30,-20.0098 0,-11 30.9957,-20.0098 68.9941,-20.0098 38,0 74.0059,-8.9804 81.0059,-19.9804 7,-11 44.002,-20.0098 82.002,-20.0098 41.9984,0 65.0078,-8.0098 58.0078,-20.0098 -7,-11 -47.0016,-19.9804 -90,-19.9804 -43,0 -83,8.9804 -90,19.9804 -7,11 -33.9977,20.0098 -60.9961,20.0098 -27,0 -49.0137,9.0098 -49.0137,20.0098 0,11 -13,19.9804 -30,19.9804 -16,0 -30,9.0098 -30,20.0098 0,11 14,20.0098 30,20.0098 z m -916.9629,-844.043 c 16.084,4.3555 49.5899,-22.8336 113.9649,-85.957 72.9984,-73 105.0117,-90 162.0117,-90 H 1800 v -115.0196 c -1,-195.9968 -48.0036,-243.9925 -157.002,-158.9941 -17.9984,15 -29.9863,14.0117 -40.9863,-2.9883 -11,-18 -30.0211,-19.0121 -70.0195,-4.0137 -30,12 -48.9785,28.9942 -42.9785,38.9942 6,10 3.9863,22.0195 -4.0137,25.0195 -64.9984,29 -99.0117,130.0036 -72.0117,217.002 14,49.9984 27.0117,110 27.0117,135 0,24.3734 3.3867,38.3437 13.0371,40.957 z m -47.5488,-596.9531 c 14.25,-2.5 36.0113,-17.0133 57.5097,-42.0117 20,-24 33.0024,-47.002 29.004,-52.002 -15,-14 -86.9942,32.0137 -98.9942,64.0137 -8.5,22.9984 -1.7695,32.5 12.4805,30 z M 1640.0098,1880 h 120 v -69.9902 c 0,-64 -5.0016,-70.0196 -60,-70.0196 -33,0 -60,9.0098 -60,20.0098 0,11 -13.9961,20.0098 -30.9961,20.0098 -36,0 -89.0039,46.9859 -89.0039,78.9843 0,12 48,21.0059 120,21.0059 z m -439.0137,-99.9902 c 23,0 36,-8.0176 30,-18.0176 -6,-10 7.0039,-13.9981 29.0039,-7.9981 49,13 146.998,-46.9898 127.998,-77.9882 -7.9984,-12 -4.9941,-17.0196 6.0059,-10.0196 11,7 41.0059,-8.9781 66.0059,-35.9765 24.9984,-27 54.9765,-43.0059 65.9765,-36.0059 11,7 14.002,2.0098 7.002,-9.9902 -8,-12 4.0156,-32.0039 26.0156,-44.0039 25,-13 41.9824,-42.9977 41.9824,-75.9961 2,-47 4.0176,-49.0039 18.0176,-14.0039 15,36.9984 17.0039,34.9984 29.0039,-15 16,-72 37,-159.0196 45,-190.0196 4,-14 9.9785,-37.998 12.9785,-52.998 3,-15 17,-40.984 30,-56.9824 13,-16 18.0141,-34.0157 11.0157,-41.0157 -6,-7 -5.0157,-27.9898 3.9843,-47.9882 8,-20 17.0098,-48.01778 20.0098,-63.01762 3,-13.99968 12.0098,-41.00032 20.0098,-60 38.9984,-86.99856 40.0078,-119.995 28.0078,-542.98828 -2,-70.99888 -7.0133,-118.99593 -12.0117,-105.99609 -7,15.99968 -40.9977,19.98226 -105.9961,11.98242 -139.9984,-15.99984 -230.0098,5.01838 -260.0098,63.01758 -27,49.9992 -82.9977,78.9868 -195.9961,100.98632 -36,7 -65.0098,22.01774 -65.0098,33.01758 0,10.99984 -9.998,12.98031 -22.998,4.98047 -14,-8.99984 -17.9926,-4.9764 -8.9942,9.02344 8,12.99984 1.0063,28.98047 -16.9921,34.98047 -17,6.99984 -30.9961,26.00813 -30.9961,43.00781 0,32.99952 -108.00669,234.01057 -156.00589,290.00977 -16.99984,18.99968 -23.99594,34.98046 -15.9961,34.98046 7,0 -5.00813,20.00048 -28.00781,45 -22.99968,23.99968 -46.99805,65.00157 -52.99805,89.99997 -5.99984,25 -18.01172,45 -27.01172,45 -8.99984,0 -20.97867,22.0098 -27.97851,50.0098 -6.99984,27 -22.02165,50.0098 -32.02149,50.0098 -10.99968,0 -19.98046,16.998 -19.98046,37.998 0,21 -15.02181,42.9805 -32.02149,49.9805 -25.99952,10 -27.99382,18.0156 -8.99414,41.0156 13.99984,16 19.01156,38.0098 12.01172,50.0098 -6.99984,11 -2.01351,58.9961 10.98633,105.9961 12.99968,46.9984 23.99414,95.9859 23.99414,108.9843 0,13 7.02555,20 16.02539,15 7.99984,-5 18.00211,6.0157 22.00195,26.0157 3,18.9984 19.97688,36.0019 35.97656,37.0019 101.9984,7 110.02312,8.9903 84.02344,24.9903 -16.99968,10.9984 14.98956,29.0019 92.98828,52.0019 64.99845,20 129.00585,30.002 141.00585,22.002 12,-7 22.002,-4.002 22.002,7.998 0,11 18.9863,21.0059 40.9863,21.0059 z" />
    <path
       d="m 2525,4754 c -25,-11 -45,-28 -45,-38 0,-10 -17,-13 -38,-7 -28,9 -43,1 -52,-30 -10,-30 -25,-40 -53,-32 -31,8 -45,-4 -61,-49 -13,-37 -32,-57 -53,-53 -21,3 -32,-8 -30,-31 2,-24 -7,-33 -25,-26 -15,6 -29,4 -29,-4 -1,-8 -4,-45 -7,-84 -3,-38 -12,-99 -21,-135 -8,-40 -6,-65 6,-65 11,0 26,-26 33,-58 7,-33 34,-82 61,-111 26,-29 48,-56 48,-61 1,-6 1,-20 1,-31 0,-12 8,-16 18,-10 10,6 23,-3 30,-20 6,-18 20,-27 30,-20 10,6 23,-3 29,-19 7,-17 25,-30 41,-30 16,0 62,-19 101,-42 61,-36 72,-37 82,-12 11,27 20,27 80,2 76,-31 161,-37 177,-11 6,9 71,15 146,12 74,-2 156,5 181,17 31,14 59,14 93,-1 34,-16 53,-16 69,0 12,12 52,20 90,19 68,-3 231,120 217,163 -3,10 6,13 21,8 16,-7 28,5 30,27 1,21 18,54 37,72 69,70 119,266 67,266 -11,0 -18,11 -15,26 7,31 -74,138 -91,120 -7,-7 -13,2 -13,19 0,31 -221,193 -267,197 -13,1 -45,5 -73,10 -27,4 -151,8 -274,8 -123,0 -244,8 -268,17 -25,9 -81,10 -126,1 -45,-8 -86,-7 -92,1 -5,9 -30,6 -55,-5 z m 415,-206 c 80,-8 120,-4 120,10 0,31 114,28 127,-3 7,-19 15,-18 31,5 16,24 25,25 45,5 14,-14 60,-25 102,-25 47,0 72,-8 65,-20 -7,-11 0,-20 14,-20 15,0 40,-18 56,-40 16,-22 45,-40 64,-40 20,0 36,-13 36,-30 0,-16 9,-30 20,-30 39,0 22,-149 -20,-180 -22,-16 -40,-44 -40,-63 0,-19 -18,-40 -40,-47 -22,-7 -40,-23 -40,-37 0,-57 -143,-88 -320,-69 -93,10 -275,12 -403,5 -158,-8 -237,-5 -246,9 -7,12 -31,22 -52,22 -22,0 -39,14 -39,32 0,17 -17,36 -39,42 -64,17 -122,306 -61,306 11,0 20,18 20,40 0,27 13,40 41,40 23,0 36,9 29,20 -7,11 2,20 19,20 17,0 31,9 31,20 0,11 27,20 60,20 33,0 60,10 60,22 0,14 40,18 120,10 66,-7 174,-17 240,-24 z"
       id="path2" />
    <path
       d="m 2643,4364 c -27,-30 -70,-88 -98,-129 -28,-41 -58,-75 -68,-75 -64,0 -8,-80 68,-96 99,-21 175,33 175,125 0,43 9,51 60,51 40,0 60,-10 60,-30 0,-52 97,-60 161,-13 68,51 99,55 99,13 0,-16 9,-30 20,-30 11,0 20,-22 20,-50 0,-27 9,-50 20,-50 11,0 20,-13 20,-28 0,-15 14,-33 32,-40 41,-16 41,-16 72,13 14,14 51,36 81,50 72,31 70,74 -5,118 -33,20 -60,43 -60,53 0,111 -237,177 -331,91 -53,-47 -89,-47 -89,1 0,83 -171,101 -237,26 z"
       id="path3" />
    <path
       d="m 3440,3242 c 0,-26 -110,-47 -270,-52 -187,-6 -183,-5 -135,-50 46,-43 225,-58 225,-20 0,11 36,20 80,20 44,0 80,7 80,16 0,9 32,29 70,44 86,34 90,60 10,60 -33,0 -60,-8 -60,-18 z"
       id="path4" />
    <path
       d="m 1883,3117 c -45,-44 -58,-70 -44,-84 12,-12 21,-38 21,-58 0,-46 46,-95 89,-95 37,0 42,-33 6,-45 -45,-15 19,-69 97,-81 98,-16 188,-59 188,-89 0,-14 13,-25 28,-25 29,0 21,-79 -10,-100 -20,-14 -25,-260 -6,-260 3,0 30,22 59,50 30,27 62,44 72,38 9,-5 17,6 17,26 1,31 4,31 20,6 18,-27 22,-27 40,0 11,18 20,20 20,6 0,-26 214,-112 240,-96 10,6 23,2 30,-10 22,-36 50,-21 50,27 0,37 -10,47 -45,45 -26,-1 -43,8 -40,23 3,14 -3,25 -14,25 -10,0 -22,16 -27,35 -9,33 -9,33 -12,0 -1,-25 -18,-35 -57,-33 -30,0 -44,6 -30,11 39,16 29,47 -15,47 -22,0 -40,10 -40,22 0,16 -9,16 -29,-2 -44,-36 -90,20 -93,114 -2,42 -7,60 -12,41 -20,-77 -94,-7 -77,73 6,29 16,75 21,102 8,36 2,50 -20,50 -16,0 -30,9 -30,20 0,11 -14,20 -31,20 -17,0 -45,11 -61,25 -118,96 -188,170 -188,200 0,53 -45,42 -117,-28 z"
       id="path5" />
    <path
       d="m 3786,3040 c -12,-33 -39,-66 -59,-74 -20,-7 -52,-30 -69,-50 -18,-20 -56,-36 -85,-36 -29,0 -53,-9 -53,-20 0,-11 -31,-20 -68,-20 -72,0 -77,-21 -32,-130 9,-22 21,-55 27,-73 11,-35 113,-29 113,7 0,10 27,16 61,13 33,-4 67,3 75,16 8,12 32,26 54,31 22,5 38,19 35,32 -3,13 9,24 26,24 88,0 133,154 79,268 -42,88 -74,91 -104,12 z"
       id="path6" />
    <path
       d="m 2490,3060 c -7,-12 -21,-16 -30,-10 -10,6 -27,-5 -38,-25 -15,-25 -21,-27 -21,-7 -1,52 -25,6 -35,-67 -11,-83 10,-91 62,-21 21,28 50,50 64,50 31,0 73,69 54,87 -19,19 -42,16 -56,-7 z"
       id="path7" />
    <path
       d="m 3904,2698 c -67,-14 -110,-38 -67,-38 13,0 23,-13 23,-30 0,-16 9,-30 20,-30 41,0 23,-176 -19,-190 -21,-6 -41,-32 -45,-56 -4,-24 -18,-42 -31,-39 -14,3 -25,-4 -25,-15 0,-11 -36,-20 -80,-20 -44,0 -80,9 -80,20 0,11 -20,20 -45,20 -36,1 -39,4 -15,20 24,16 21,19 -15,20 -25,0 -45,10 -45,22 0,12 13,17 30,11 83,-32 221,-35 260,-5 37,29 32,31 -85,31 -76,1 -125,9 -125,23 0,22 -79,96 -104,97 -7,1 -13,-67 -14,-151 0,-84 -8,-163 -17,-175 -10,-13 -16,-43 -14,-68 2,-25 -8,-45 -22,-45 -15,0 -21,-16 -15,-40 9,-35 1,-40 -72,-40 -45,0 -82,-10 -82,-21 0,-12 -11,-15 -25,-5 -50,32 -135,21 -135,-18 0,-28 -16,-36 -70,-36 -38,0 -70,-9 -70,-20 0,-11 -36,-20 -80,-20 -44,0 -80,9 -80,20 0,11 -28,20 -61,20 -36,0 -56,8 -49,20 7,11 -3,20 -22,20 -32,0 -31,-3 2,-40 22,-24 51,-36 72,-29 19,6 40,1 47,-10 8,-12 52,-21 98,-21 47,0 96,-11 110,-25 20,-20 23,-18 12,10 -11,28 -3,35 39,35 29,0 52,-11 53,-25 0,-14 9,-10 20,9 11,19 33,29 48,23 43,-16 257,51 287,89 22,30 28,30 44,4 16,-25 19,-22 20,11 0,63 101,149 175,149 154,0 345,183 345,331 0,16 11,29 25,29 20,1 20,4 0,17 -14,9 -32,52 -40,95 -15,78 -17,80 -81,66 z"
       id="path8" />
    <path
       d="m 2980,2359 -150,-12 147,-3 c 123,-3 144,-9 125,-31 -23,-28 -173,-33 -214,-8 -22,14 -71,-10 -71,-35 0,-32 49,-44 138,-34 62,7 87,3 78,-12 -8,-12 -5,-27 7,-34 11,-7 20,2 20,19 0,17 14,31 31,31 17,0 26,-9 19,-20 -7,-11 -4,-20 7,-20 11,0 23,11 28,25 7,19 16,19 43,-3 32,-27 32,-25 10,25 -13,29 -31,53 -40,53 -8,0 -18,16 -22,35 -5,31 -24,34 -156,24 z"
       id="path9" />
    <path
       d="m 2348,2037 c -10,-16 -1,-20 29,-12 24,6 48,3 54,-7 6,-10 -7,-18 -29,-18 -22,0 -45,-9 -52,-20 -16,-26 9,-25 87,2 51,18 68,16 95,-11 18,-18 37,-28 43,-23 16,16 -49,72 -84,72 -17,0 -31,9 -31,20 0,28 -94,25 -112,-3 z"
       id="path10" />
    <path
       d="m 1921,1974 c -1,-71 147,-234 249,-274 38,-15 70,-35 70,-44 0,-9 16,-16 36,-16 20,0 46,-10 58,-22 17,-17 34,-15 64,6 40,28 37,32 -73,87 -116,58 -170,105 -152,134 5,8 0,15 -10,15 -11,0 -35,14 -52,32 -24,24 -39,26 -59,10 -27,-23 -63,5 -109,88 -20,37 -22,36 -22,-16 z"
       id="path11" />
    <path
       d="m 3940,1811 c 0,-38 9,-74 20,-81 12,-7 20,20 20,69 0,44 -9,81 -20,81 -11,0 -20,-31 -20,-69 z"
       id="path12" />
    <path
       d="m 1990,1559 c 88,-37 108,-35 72,9 -14,16 -53,28 -88,27 l -64,-1 z"
       id="path13" />
    <path
       d="m 3820,1545 c 0,-24 -100,-64 -131,-52 -72,28 -128,-94 -128,-278 -1,-96 6,-175 14,-175 40,1 55,40 59,154 5,130 47,212 99,192 16,-6 27,3 27,22 0,18 8,32 17,32 29,0 125,92 110,106 -18,19 -67,18 -67,-1 z"
       id="path14" />
    <path
       d="m 1860,1441 c 0,-43 9,-84 19,-91 11,-6 26,-56 33,-111 12,-89 48,-142 48,-71 0,16 11,34 25,40 20,10 20,14 0,24 -14,6 -25,43 -25,81 0,41 -8,64 -20,57 -11,-7 -20,-1 -20,14 -1,19 -6,18 -21,-4 -16,-22 -20,-9 -15,55 4,47 0,85 -8,85 -9,0 -16,-35 -16,-79 z"
       id="path15" />
    <path
       d="m 1964,1129 c -18,-21 -20,-47 -6,-94 13,-47 19,-53 20,-22 1,24 13,49 27,55 19,9 19,15 1,23 -13,7 -19,25 -13,40 14,36 4,36 -29,-2 z"
       id="path16" />
  </g>
</svg>
