<?xml version="1.0" standalone="no"?>
<!DOCTYPE svg PUBLIC "-//W3C//DTD SVG 20010904//EN"
 "http://www.w3.org/TR/2001/REC-SVG-20010904/DTD/svg10.dtd">
<svg version="1.0" xmlns="http://www.w3.org/2000/svg"
 width="1750.000000pt" height="1240.000000pt" viewBox="0 0 1750.000000 1240.000000"
 preserveAspectRatio="xMidYMid meet">
<metadata>
Created by potrace 1.16, written by Peter Selinger 2001-2019
</metadata>
<g transform="translate(0.000000,1240.000000) scale(0.100000,-0.100000)"
fill="#000000" stroke="none">
<path d="M7676 11121 c-10 -16 24 -109 60 -163 20 -29 82 -99 137 -155 56 -56
99 -104 96 -107 -6 -6 -248 36 -364 64 -49 11 -130 35 -178 51 -92 32 -117 29
-117 -11 0 -33 206 -94 555 -165 167 -33 280 -59 314 -71 11 -4 9 -8 -7 -20
-12 -8 -22 -21 -22 -29 0 -19 49 -55 75 -55 37 0 140 -83 297 -238 139 -137
149 -145 170 -133 13 7 35 30 51 52 26 38 27 43 27 177 0 142 -16 549 -28 707
-6 82 -9 90 -29 93 -14 2 -27 -5 -37 -20 -13 -20 -13 -41 0 -178 8 -85 17
-256 21 -380 7 -259 19 -245 -105 -118 -92 95 -173 152 -250 174 -152 44 -201
73 -257 156 -42 62 -76 170 -79 245 -1 55 -16 70 -36 34 -14 -27 -12 -74 5
-146 21 -87 20 -98 -7 -84 -38 20 -119 102 -145 146 -13 23 -28 64 -31 90 -6
42 -12 50 -47 70 -43 24 -61 28 -69 14z m720 -629 c21 -11 61 -39 88 -63 51
-45 120 -142 114 -161 -4 -12 -120 80 -238 192 -84 78 -84 80 -44 66 23 -8 59
-23 80 -34z"/>
<path d="M3416 10954 c-21 -55 78 -162 212 -229 99 -50 196 -82 431 -145 106
-28 231 -66 279 -86 100 -40 184 -84 188 -99 2 -5 -20 -27 -47 -48 -51 -39
-89 -89 -89 -118 0 -27 75 -129 147 -202 46 -46 91 -80 139 -103 65 -33 78
-35 140 -32 38 2 76 7 85 11 13 7 15 2 11 -22 -6 -45 28 -72 143 -110 115 -38
146 -53 197 -94 32 -25 63 -59 200 -222 l28 -32 57 20 c53 18 66 19 154 8 52
-6 111 -16 131 -22 34 -9 37 -12 36 -48 0 -44 22 -92 57 -119 13 -11 71 -39
127 -63 57 -23 117 -55 135 -70 70 -60 155 -63 338 -9 139 41 147 45 243 128
43 38 93 74 111 82 65 27 192 -25 310 -125 89 -76 88 -73 34 -157 -145 -223
-235 -572 -220 -846 5 -91 4 -104 -11 -108 -112 -36 -233 -133 -324 -260 -67
-94 -88 -158 -88 -268 0 -157 57 -283 186 -413 l81 -82 -56 -23 c-48 -20 -73
-23 -176 -23 -100 0 -132 4 -194 24 -84 28 -104 23 -109 -27 -3 -28 1 -33 45
-56 55 -27 143 -54 286 -87 53 -12 97 -26 97 -30 0 -5 -17 -31 -38 -59 -89
-117 -164 -317 -208 -552 l-27 -143 -88 -90 c-49 -49 -142 -137 -206 -195 -65
-58 -149 -140 -186 -182 -103 -118 -124 -125 -292 -94 -55 10 -144 19 -198 20
-96 1 -99 0 -123 -27 -50 -58 -112 -68 -274 -42 -151 25 -988 50 -1620 49
-354 0 -447 -9 -630 -60 -167 -47 -384 -152 -457 -220 -43 -42 -43 -74 3 -144
51 -78 98 -124 189 -185 101 -68 201 -111 433 -192 28 -10 52 -20 52 -24 0
-12 -177 -60 -384 -105 -359 -78 -479 -111 -674 -184 -541 -205 -729 -297
-802 -393 -96 -128 -118 -302 -65 -508 46 -177 158 -333 333 -465 143 -109
310 -183 518 -229 65 -14 196 -46 289 -70 197 -51 319 -75 381 -75 23 0 188
-24 366 -54 615 -103 909 -139 1283 -156 247 -11 567 -36 620 -49 29 -8 29 -8
-25 -27 -94 -32 -153 -68 -174 -103 -27 -47 -34 -194 -12 -281 28 -111 82
-206 166 -290 117 -118 207 -157 530 -230 211 -48 546 -100 705 -111 131 -8
1087 -59 1400 -74 110 -5 751 -28 1110 -40 340 -11 927 17 1280 61 647 80
1132 211 1725 464 128 55 179 122 180 236 0 78 -19 133 -72 203 -51 69 -57 75
-195 166 -62 41 -113 76 -113 79 0 2 152 2 338 -1 780 -13 1319 65 2027 294
338 109 636 268 840 449 115 102 145 156 145 258 0 141 -58 267 -180 387 -127
126 -259 192 -559 280 -92 26 -178 53 -192 58 -21 9 -19 10 21 10 99 2 483 22
610 32 282 22 629 86 844 155 130 42 233 99 302 168 82 82 118 152 119 232 0
72 -15 97 -117 202 -136 140 -304 232 -533 292 -44 12 -109 32 -145 45 -91 32
-237 70 -360 94 -475 92 -1441 151 -2565 156 -543 3 -644 6 -810 24 -104 11
-242 21 -306 21 -103 0 -123 3 -175 26 -43 19 -67 24 -94 19 -19 -3 -95 -9
-167 -13 -127 -7 -134 -8 -160 -35 l-28 -28 150 3 c140 3 153 1 188 -19 34
-21 43 -22 110 -13 105 14 267 12 472 -6 129 -10 434 -17 1070 -24 836 -9
1006 -14 1380 -40 305 -22 694 -71 950 -119 108 -21 442 -116 565 -161 175
-64 320 -152 412 -247 101 -105 116 -154 79 -253 -40 -105 -117 -170 -291
-244 -326 -139 -702 -195 -1511 -222 -174 -6 -205 -5 -269 12 -71 18 -72 18
-86 -1 -8 -10 -14 -29 -14 -42 0 -26 -9 -24 200 -58 370 -61 608 -146 796
-283 108 -79 155 -144 198 -277 57 -175 30 -240 -164 -399 -226 -185 -546
-333 -1010 -465 -351 -100 -614 -151 -965 -188 -308 -32 -1092 -20 -1193 18
-30 12 -60 -4 -73 -38 -15 -41 -3 -56 71 -87 216 -88 383 -251 397 -388 6 -62
-8 -124 -39 -163 -21 -28 -123 -79 -297 -152 -415 -172 -931 -298 -1481 -362
-455 -53 -667 -66 -1080 -65 -217 1 -492 6 -610 13 -118 6 -341 16 -495 21
-154 5 -359 14 -455 20 -96 5 -328 17 -515 25 -361 17 -379 18 -635 41 -404
36 -850 128 -1060 217 -60 26 -156 103 -198 159 -85 113 -117 213 -110 336 7
114 17 129 126 184 114 57 240 88 382 95 91 4 110 9 142 30 43 29 56 59 36 79
-11 11 -26 9 -93 -13 -109 -35 -326 -43 -530 -18 -80 10 -279 20 -465 25 -394
11 -555 29 -1111 124 -285 49 -449 74 -629 95 -169 20 -594 122 -783 187 -373
130 -579 329 -656 635 -36 141 -23 298 31 388 37 62 111 124 207 174 403 209
922 368 1651 508 151 29 180 41 180 74 0 7 -55 26 -129 44 -329 80 -531 184
-652 335 -85 106 -70 140 100 226 262 131 594 190 986 176 99 -3 223 -11 275
-18 53 -6 217 -10 370 -9 317 3 539 -10 806 -43 153 -20 204 -23 269 -15 44 5
93 5 109 1 l29 -8 -41 -12 c-70 -21 -84 -80 -28 -113 31 -18 34 -23 29 -59 -6
-42 3 -54 81 -113 23 -18 39 -40 43 -59 l6 -31 61 6 c34 3 113 18 176 32 135
31 244 41 282 26 32 -12 105 -101 153 -186 18 -34 54 -87 79 -120 52 -66 54
-59 -39 -106 -70 -36 -321 -204 -480 -320 -264 -194 -574 -376 -622 -367 -30
6 -60 64 -77 155 -21 105 -73 211 -125 254 -75 62 -230 86 -342 53 -161 -48
-233 -126 -233 -254 0 -80 9 -108 94 -290 90 -191 104 -239 146 -470 41 -235
70 -326 134 -424 52 -79 65 -88 130 -84 33 1 45 -3 58 -20 l17 -21 65 29 c142
63 244 162 277 270 35 116 89 244 115 271 21 24 34 29 73 29 77 0 273 91 425
198 121 85 275 219 359 313 167 188 288 274 404 286 l57 6 66 -58 c36 -32 73
-73 82 -92 9 -18 18 -33 22 -33 3 0 44 32 90 72 92 77 147 107 196 108 42 0
96 -20 90 -34 -24 -57 -28 -85 -15 -112 25 -51 70 -73 277 -133 61 -18 72 -25
72 -44 0 -12 -18 -119 -40 -237 -22 -118 -46 -265 -52 -327 l-12 -114 -41 -24
c-99 -57 -165 -240 -165 -454 0 -107 -7 -134 -79 -284 -70 -146 -71 -148 -81
-262 -5 -49 -12 -119 -16 -155 -5 -56 -3 -74 16 -118 40 -93 135 -152 244
-152 74 1 130 16 222 60 123 60 249 201 342 385 89 178 132 438 103 620 -8 45
-6 51 15 68 29 22 32 72 9 137 -13 38 -13 52 0 124 8 45 19 163 25 263 5 100
17 215 26 255 17 77 57 166 77 173 7 3 73 14 147 25 208 31 278 74 288 179 4
49 7 53 73 107 38 31 126 115 195 187 105 109 129 129 142 120 23 -14 20 -77
-8 -181 -26 -93 -21 -115 24 -94 29 13 90 135 81 162 -3 10 -1 57 4 105 13
113 -4 161 -64 178 -17 5 -32 -12 -94 -108 -76 -117 -170 -223 -246 -275 -52
-36 -60 -37 -41 -7 17 25 93 210 132 319 15 40 43 105 63 143 20 39 38 74 40
79 8 19 -99 -3 -167 -34 -80 -37 -95 -50 -86 -74 8 -21 26 -20 74 4 22 11 42
20 46 20 12 0 -7 -104 -33 -180 -29 -85 -112 -252 -148 -296 l-24 -29 -1 105
c0 67 9 162 25 259 14 84 30 205 37 270 l12 117 -28 27 c-31 31 -30 41 15 126
34 63 36 94 10 128 -25 31 -19 47 38 103 l46 45 -4 268 c-1 147 0 267 3 267 3
0 21 -31 40 -69 41 -80 58 -90 99 -61 28 21 29 21 49 3 33 -29 148 -276 148
-317 0 -19 -7 -85 -16 -147 -8 -61 -14 -128 -12 -148 l3 -36 18 27 c11 16 23
60 28 104 6 42 17 90 25 107 l16 30 79 -134 c44 -74 85 -151 91 -173 12 -38
11 -40 -22 -68 -19 -16 -73 -54 -119 -84 -276 -181 -288 -278 -34 -276 93 1
191 25 316 78 l81 34 39 -38 c21 -20 58 -64 82 -97 56 -79 185 -299 185 -318
0 -7 -9 -40 -20 -72 -11 -33 -39 -147 -61 -254 -40 -195 -86 -354 -115 -401
-14 -23 -15 -18 -9 75 3 55 12 186 20 290 8 105 15 245 15 313 l0 122 -48 0
c-61 0 -77 -13 -91 -75 -19 -75 -63 -151 -159 -271 -81 -100 -87 -106 -90 -80
-3 28 27 279 49 408 13 73 5 98 -31 98 -21 0 -25 -22 -40 -205 -18 -220 -34
-320 -66 -418 -13 -38 -13 -51 -4 -62 35 -42 66 -7 243 266 31 47 78 110 104
139 46 51 47 52 57 29 15 -38 11 -292 -7 -424 -19 -133 -23 -346 -7 -376 13
-24 32 -24 54 0 28 31 85 188 117 326 72 306 92 380 101 386 6 4 25 2 44 -4
43 -13 62 0 45 31 -19 36 -13 118 14 185 32 77 41 136 27 177 l-11 31 28 -20
c47 -34 92 -91 122 -156 30 -63 57 -171 45 -182 -7 -7 -46 26 -46 39 0 5 -12
34 -26 64 -26 55 -48 67 -83 45 -32 -21 39 -152 127 -234 25 -24 33 -27 51
-18 46 25 53 84 22 194 -10 37 -18 67 -17 67 1 0 41 -20 89 -45 93 -48 144
-56 171 -29 19 18 19 24 2 89 -12 42 -11 55 0 84 8 18 14 48 14 65 0 31 -5 41
-72 137 -65 92 -41 125 58 80 51 -23 60 -37 35 -50 -47 -26 -33 -82 25 -101
22 -8 65 -41 110 -86 80 -81 102 -89 148 -53 27 21 28 21 74 4 74 -27 146 -70
297 -175 142 -99 221 -147 287 -174 34 -14 38 -14 62 5 45 35 35 62 -47 126
-40 32 -133 101 -207 153 -149 106 -317 262 -288 268 29 6 126 -27 212 -70 98
-49 201 -89 210 -81 13 13 5 51 -15 68 -11 11 -57 37 -102 60 -78 38 -123 82
-104 101 13 13 170 -16 357 -65 240 -65 294 -74 415 -74 73 1 118 7 167 22 67
21 78 32 70 63 -7 26 -46 33 -457 73 -264 27 -434 72 -570 154 -49 30 -61 42
-68 72 -12 52 -39 73 -138 107 -47 17 -108 44 -135 60 -27 16 -103 50 -169 76
-126 48 -239 113 -180 103 17 -3 116 -18 220 -32 105 -15 253 -38 329 -51 138
-24 140 -25 173 -64 47 -54 107 -75 213 -74 181 3 380 78 333 125 -5 5 -90 11
-189 13 -156 3 -210 9 -419 45 -132 23 -292 46 -355 50 -109 8 -120 10 -209
55 -105 51 -154 58 -192 27 l-23 -19 -43 56 c-140 179 -250 427 -333 752 -34
130 -39 223 -14 258 14 20 17 63 19 270 1 136 7 301 14 367 6 70 8 193 5 295
-8 227 3 351 82 938 15 116 15 129 -13 195 -14 32 -21 37 -42 35 -35 -4 -52
-50 -28 -75 9 -10 21 -39 26 -65 11 -48 6 -89 -23 -203 -9 -32 -16 -84 -16
-115 -1 -30 -8 -95 -16 -145 -11 -67 -18 -223 -24 -600 -8 -451 -16 -605 -36
-637 -3 -4 -13 -8 -23 -8 -9 0 -26 -6 -36 -14 -19 -14 -19 -15 2 -77 27 -79
43 -184 43 -283 0 -246 251 -847 430 -1027 67 -68 143 -111 325 -185 195 -79
247 -107 314 -168 32 -29 80 -66 107 -82 71 -41 136 -85 131 -90 -2 -3 -34 5
-70 18 -55 18 -68 19 -81 9 -9 -8 -16 -21 -16 -30 0 -24 -20 -41 -47 -41 -13
0 -35 -11 -49 -25 l-26 -26 -31 20 c-18 11 -58 50 -90 87 -82 95 -97 106 -128
91 -17 -9 -24 -21 -24 -42 0 -24 9 -35 46 -60 26 -17 122 -98 215 -181 93 -84
202 -179 242 -213 41 -33 72 -61 69 -61 -3 0 -104 57 -224 126 -208 120 -220
126 -270 125 -54 -2 -100 15 -140 51 l-21 20 34 45 c43 56 43 88 1 142 -79 99
-192 161 -459 247 -95 31 -204 72 -241 91 -62 31 -73 41 -121 116 -81 124
-145 239 -269 482 -61 121 -115 227 -119 236 -8 21 1 33 39 48 51 21 57 34 35
78 -33 63 -51 138 -87 348 -34 203 -65 308 -110 377 l-25 37 43 11 c122 32
214 74 286 131 35 28 58 39 71 36 37 -10 53 20 46 87 -5 44 -2 69 8 89 37 69
-43 -7 -84 -81 -21 -37 -29 -43 -109 -67 -151 -48 -289 -24 -415 70 -56 41
-126 125 -126 150 0 7 18 15 40 19 75 12 171 67 240 137 146 149 192 355 111
505 -50 95 -86 107 -256 82 -71 -10 -84 -9 -117 6 -46 22 -63 14 -114 -56
l-39 -53 -2 50 c-2 28 8 154 21 280 23 226 23 230 4 247 -22 20 -42 15 -83
-22 -35 -32 -76 -60 -87 -60 -16 0 -7 72 17 137 20 52 23 68 13 75 -27 16 -59
7 -120 -37 -86 -61 -142 -89 -163 -81 -18 7 -18 14 1 133 5 36 4 43 -15 53
-19 10 -29 6 -74 -26 -102 -74 -120 -84 -150 -84 l-30 0 8 53 c5 28 9 68 9 87
1 52 -27 51 -108 -5 l-67 -46 2 51 c2 27 -1 53 -5 57 -11 11 -98 -39 -230
-133 -65 -46 -122 -81 -127 -78 -14 8 -11 45 10 134 20 83 18 114 -11 138 -12
9 -44 -13 -174 -119 -177 -146 -242 -194 -252 -185 -13 13 18 117 63 212 25
54 50 115 54 137 28 121 228 288 426 355 211 71 499 51 698 -49 102 -52 249
-154 311 -215 184 -184 296 -489 296 -805 0 -90 3 -111 16 -116 31 -12 38 15
42 181 5 187 -10 294 -59 431 -59 164 -180 327 -296 402 -29 18 -57 41 -62 51
-6 12 -4 54 9 128 10 60 30 210 44 334 15 124 30 250 35 280 9 54 1 90 -19 90
-5 0 -25 -14 -45 -32 -42 -36 -25 -47 -141 86 -145 166 -319 296 -479 357 -44
17 -82 34 -85 38 -14 18 -68 31 -133 31 -104 0 -146 14 -188 62 -20 22 -42 38
-47 34 -6 -4 -14 -23 -18 -43 l-7 -36 -156 6 c-86 3 -193 13 -238 23 -94 19
-113 15 -113 -20 0 -36 9 -37 380 -66 353 -28 495 -57 649 -134 194 -97 246
-140 394 -326 55 -69 114 -141 132 -160 l32 -35 -8 -125 c-17 -230 -27 -298
-52 -354 l-25 -55 -89 45 c-122 62 -248 91 -447 105 -298 21 -386 -4 -599
-171 -60 -47 -116 -91 -126 -98 -15 -10 -27 -5 -90 43 -39 30 -106 71 -148 92
-68 33 -86 38 -148 38 -70 -1 -72 -2 -129 -48 -141 -115 -308 -187 -433 -187
-70 0 -77 3 -247 84 -198 95 -203 101 -173 187 29 79 35 75 -142 89 -116 10
-173 10 -212 3 -47 -10 -59 -9 -93 9 -62 32 -142 120 -178 198 -26 55 -38 70
-55 70 -41 0 -164 30 -214 51 -57 25 -62 43 -24 93 35 46 34 76 -4 76 -16 0
-48 -7 -71 -15 -58 -20 -87 -19 -100 5 -14 27 -25 25 -62 -10 -36 -35 -35 -35
-90 -13 -93 36 -203 146 -238 238 -25 65 32 118 187 176 72 27 83 35 83 55 0
28 -20 31 -99 12 l-50 -11 -45 41 c-29 26 -55 42 -71 42 -40 0 -240 46 -365
83 -63 20 -169 49 -235 66 -202 53 -334 131 -409 242 -26 40 -35 46 -40 33z
m4109 -2171 c-15 -117 -12 -169 9 -192 18 -20 19 -20 45 -2 14 11 55 47 91 81
70 66 122 104 157 115 20 5 22 2 25 -42 3 -45 5 -48 33 -51 22 -2 46 8 88 38
32 22 59 40 61 40 2 0 7 -29 11 -64 3 -36 13 -70 20 -76 22 -18 66 -3 142 45
37 25 71 45 76 45 4 0 7 -28 7 -63 0 -37 6 -71 13 -82 22 -29 90 -16 166 34
69 44 95 52 87 24 -23 -82 -13 -193 17 -193 7 0 43 18 80 40 36 22 71 40 77
40 7 0 9 -21 5 -62 -3 -35 -10 -120 -15 -190 -10 -122 -33 -290 -46 -335 -4
-16 -1 -23 16 -28 33 -10 59 8 118 86 58 75 85 86 104 44 l11 -25 72 40 c59
32 83 40 125 40 46 0 56 -4 85 -33 148 -148 12 -512 -205 -552 -21 -3 -55 0
-85 9 -47 15 -50 14 -72 -6 -12 -11 -30 -44 -39 -72 -29 -91 -45 -115 -114
-170 -278 -225 -618 -356 -965 -373 -325 -16 -636 84 -850 272 -186 163 -216
213 -223 370 -3 86 0 110 21 171 48 141 144 244 275 295 48 19 85 23 242 29
146 6 195 11 234 26 57 22 76 45 60 72 -17 25 -72 20 -119 -12 -40 -27 -40
-27 -165 -20 -69 3 -126 8 -128 9 -2 2 -4 63 -5 136 l-2 134 46 -3 c62 -5 168
22 256 65 80 39 96 53 87 77 -9 24 -34 19 -89 -18 -31 -22 -80 -42 -132 -55
-133 -34 -163 -29 -163 30 0 43 9 54 80 99 25 16 88 67 141 114 109 96 205
166 227 166 13 0 14 -11 7 -67z m1436 -1549 c53 -34 119 -74 148 -88 66 -34
166 -60 202 -52 43 8 35 -2 -18 -26 -96 -43 -253 -20 -357 51 -51 36 -59 37
-81 15 -19 -19 -14 -41 27 -107 16 -27 28 -53 26 -59 -2 -5 -24 9 -48 31 -111
102 -152 34 -86 -141 28 -73 35 -117 21 -118 -5 -1 -35 34 -66 77 -35 49 -69
85 -93 98 l-37 20 -15 -20 c-11 -14 -13 -31 -9 -55 19 -113 19 -130 -2 -130
-28 0 -46 24 -88 120 -42 99 -61 123 -75 100 -5 -8 -10 -24 -10 -35 0 -48 106
-231 203 -350 23 -27 27 -28 52 -17 25 11 27 16 22 60 -2 26 -10 72 -17 103
-8 31 -10 64 -6 75 7 17 10 17 29 -11 39 -54 181 -196 240 -241 64 -48 102
-56 112 -24 10 30 -2 54 -34 73 -75 44 -137 164 -156 300 -6 46 -5 48 13 38
11 -6 57 -45 102 -86 108 -99 163 -136 218 -147 25 -4 47 -10 50 -13 2 -2 19
-89 37 -192 19 -103 38 -207 43 -230 l9 -41 -61 -22 c-81 -29 -170 -78 -293
-161 -56 -38 -106 -69 -111 -69 -15 0 -61 66 -89 128 -37 83 -37 180 0 251 32
62 33 72 9 101 -26 33 -67 21 -81 -22 -36 -112 -42 -182 -43 -543 0 -286 -3
-367 -14 -395 -14 -33 -38 -61 -124 -146 -52 -51 -125 -74 -250 -80 -162 -8
-172 -10 -168 -42 4 -37 41 -42 168 -21 57 9 111 14 118 11 23 -8 -57 -51
-108 -57 -25 -3 -56 -8 -70 -11 l-25 -6 28 -24 c40 -35 70 -30 168 26 109 62
128 67 159 42 13 -10 20 -23 17 -29 -8 -13 -223 -142 -302 -180 -267 -132
-520 -157 -683 -66 -71 39 -211 143 -294 217 l-55 50 14 34 14 34 -60 57 c-58
53 -75 81 -50 81 6 0 47 -18 91 -40 87 -43 122 -49 132 -24 15 39 6 51 -76 92
-81 40 -176 119 -214 178 -21 31 -21 61 7 439 11 155 19 321 17 370 -3 88 -4
90 -28 90 -33 0 -38 -23 -39 -177 -1 -69 -4 -133 -7 -142 -8 -20 -88 -21 -197
-1 -82 14 -206 67 -244 104 l-22 21 25 92 c14 51 40 124 59 163 l34 71 68 11
c94 16 231 62 346 117 54 24 97 40 97 34 0 -5 -15 -40 -34 -77 -42 -80 -48
-102 -37 -120 11 -17 53 -8 93 20 16 12 60 60 100 107 112 137 104 133 228
126 187 -11 438 24 639 88 211 67 438 197 578 332 89 85 67 86 214 -10z
m-1973 -248 c42 -24 106 -56 142 -72 36 -15 67 -29 69 -31 9 -6 -36 -47 -87
-80 -46 -30 -251 -107 -260 -98 -9 8 33 62 65 85 102 73 118 88 121 108 4 29
-20 29 -83 1 -39 -17 -59 -20 -107 -15 -71 8 -202 42 -237 61 -25 14 -25 14
23 15 55 0 145 21 208 49 24 11 49 20 56 20 7 1 48 -19 90 -43z m2105 -13 c30
-28 114 -190 103 -200 -10 -10 -83 45 -122 91 -20 25 -51 68 -67 97 l-30 52
42 -6 c28 -3 54 -15 74 -34z m-2298 -880 c92 -29 91 -26 43 -96 -119 -177
-383 -469 -556 -616 -83 -70 -100 -104 -84 -174 24 -109 44 -238 38 -244 -15
-15 -72 59 -112 145 -28 59 -49 92 -59 92 -9 0 -33 -9 -55 -20 -48 -24 -73
-25 -106 -4 -19 13 -39 16 -89 11 -52 -5 -68 -3 -86 11 l-21 18 31 32 c30 29
32 36 29 89 l-3 58 -92 6 c-50 4 -107 12 -126 18 -41 14 -72 45 -62 62 12 19
119 5 225 -30 143 -47 204 -39 233 29 24 56 440 468 601 595 l79 63 61 -14
c33 -8 84 -22 111 -31z m2522 -130 c37 -76 107 -210 156 -298 49 -88 111 -198
137 -245 26 -47 63 -117 83 -156 l35 -70 87 -22 c81 -20 359 -125 380 -143 5
-5 -1 -9 -16 -9 -33 0 -69 -26 -69 -50 0 -12 16 -30 43 -46 58 -37 95 -71 128
-123 27 -41 39 -101 22 -101 -23 0 -79 48 -158 134 -96 103 -118 114 -155 74
-27 -29 -25 -44 7 -71 53 -43 86 -82 104 -122 21 -49 28 -107 13 -112 -21 -7
-130 105 -193 196 -34 49 -67 91 -73 94 -20 6 -66 -13 -72 -30 -4 -9 7 -36 23
-62 61 -94 92 -175 97 -253 l5 -73 -31 35 c-68 76 -102 121 -200 270 -57 85
-104 156 -105 158 -2 2 -61 -19 -131 -46 -71 -28 -149 -56 -174 -62 -51 -14
-164 -17 -199 -6 -23 8 -22 9 20 47 64 57 165 123 252 165 42 20 81 42 88 50
17 21 3 58 -41 109 -22 26 -47 60 -56 77 -9 17 -59 103 -112 192 -123 208
-222 412 -222 459 0 51 37 89 132 137 122 61 116 64 195 -97z m-2318 -26 c1
-54 -6 -157 -15 -229 -15 -127 -15 -327 1 -389 6 -25 4 -26 -172 -88 -170 -60
-370 -150 -460 -206 l-42 -26 -13 23 c-22 38 -16 194 9 248 35 76 111 167 215
257 112 97 216 215 362 412 114 153 114 153 115 -2z m73 -758 c22 -11 84 -62
137 -112 54 -51 119 -103 145 -116 100 -52 97 -107 -15 -269 l-37 -53 -44 63
c-49 70 -87 87 -108 48 -16 -30 -5 -55 50 -108 60 -57 69 -88 40 -125 -12 -15
-26 -27 -31 -27 -5 0 -24 31 -43 68 -38 75 -58 97 -81 88 -24 -9 -18 -31 35
-135 28 -54 50 -107 50 -117 0 -15 -11 -23 -43 -31 -23 -7 -76 -34 -117 -62
-41 -28 -77 -47 -81 -43 -3 4 -14 48 -23 97 -45 231 -148 435 -246 485 -33 17
-60 20 -157 20 -168 0 -191 9 -133 50 45 32 108 28 245 -16 63 -20 118 -34
122 -31 3 4 -2 18 -11 33 -22 33 -100 69 -195 90 l-75 17 48 19 c26 10 104 48
173 85 69 36 150 74 182 84 78 25 161 24 213 -2z m1489 -190 c12 -24 3 -109
-36 -334 -33 -189 -47 -363 -36 -450 5 -38 7 -72 5 -74 -2 -2 -34 14 -71 36
-181 107 -335 155 -493 156 -108 0 -145 -7 -393 -72 -122 -32 -197 -40 -197
-20 0 7 16 26 35 44 33 31 64 45 217 90 33 10 68 29 84 46 15 16 25 29 21 29
-4 0 -78 -16 -163 -35 -86 -20 -158 -34 -161 -32 -2 3 10 18 26 35 21 21 50
35 98 46 138 35 173 47 188 69 27 39 -16 41 -145 8 -63 -17 -116 -28 -119 -26
-13 13 75 159 132 219 56 59 67 67 88 60 53 -17 241 -6 342 20 102 26 294 104
445 180 92 46 110 47 133 5z m-1893 -279 c57 -35 105 -131 126 -252 l7 -37
-63 -29 c-35 -17 -97 -40 -138 -52 -155 -46 -184 -65 -308 -202 -154 -172
-300 -302 -459 -409 -85 -58 -281 -159 -307 -159 -13 0 -16 12 -16 67 0 119
-43 248 -113 337 l-31 39 30 23 c34 28 199 139 366 247 l117 76 27 -36 c33
-43 80 -73 117 -73 35 0 34 9 -4 46 -34 32 -59 74 -59 99 0 21 48 65 135 124
97 66 193 115 326 166 131 50 195 57 247 25z m3601 -95 c44 -48 86 -127 97
-183 6 -31 6 -31 -23 -23 -48 14 -69 28 -107 73 -39 46 -66 119 -66 180 l0 39
28 -20 c16 -11 47 -41 71 -66z m-5452 -255 c49 -23 69 -39 92 -75 54 -85 96
-260 131 -549 46 -371 56 -403 142 -447 38 -20 40 -22 33 -57 -17 -91 -94
-196 -165 -226 l-36 -15 -39 167 c-36 150 -40 180 -40 297 l0 130 -36 35 c-33
32 -36 41 -42 110 -9 109 -43 233 -89 330 -52 107 -136 195 -220 230 -84 34
-74 64 30 86 102 22 170 18 239 -16z m3292 -135 l43 -18 -6 -48 c-12 -88 -44
-193 -92 -304 l-49 -110 -5 -220 c-6 -233 -18 -305 -50 -305 -10 0 -55 20
-101 45 -146 79 -193 99 -246 103 -49 4 -53 6 -53 31 0 69 44 309 95 516 77
317 72 303 97 311 89 28 297 27 367 -1z m-3505 -54 c26 -23 101 -153 136 -237
44 -107 77 -246 116 -489 19 -121 42 -251 50 -290 26 -121 27 -134 14 -150
-18 -22 -72 -18 -110 8 -52 35 -100 176 -159 472 -43 212 -74 313 -140 450
-72 149 -85 187 -77 229 l6 33 73 -5 c46 -3 79 -10 91 -21z m630 -729 c39 -77
-2 -131 -57 -76 -30 30 -42 67 -52 164 l-8 65 50 -60 c28 -33 58 -75 67 -93z
m2321 -287 c0 -14 -12 -24 -42 -35 -49 -18 -71 -45 -102 -121 -12 -31 -34 -67
-48 -80 l-25 -24 7 55 c19 146 89 233 180 227 22 -1 30 -7 30 -22z m177 -105
c77 -23 139 -67 183 -129 27 -39 30 -51 33 -138 11 -295 -127 -632 -319 -780
-30 -23 -76 -53 -103 -67 -98 -52 -196 -24 -196 55 0 27 -2 30 -15 19 -8 -7
-18 -30 -21 -51 -8 -48 -26 -50 -77 -8 -103 85 -87 185 59 369 99 126 111 157
124 334 17 223 29 271 88 352 55 75 107 84 244 44z"/>
<path d="M8024 8442 c30 -57 110 -92 277 -120 121 -21 139 -19 139 13 0 34
-17 42 -105 48 -57 4 -107 15 -175 40 -52 20 -108 39 -123 43 l-29 7 16 -31z"/>
<path d="M7847 8143 c-30 -30 23 -92 121 -140 71 -36 82 -38 166 -38 118 0
184 22 244 82 24 24 42 47 39 49 -3 3 -33 -5 -68 -17 -44 -15 -96 -24 -165
-27 -119 -5 -179 9 -268 63 -66 39 -60 37 -69 28z"/>
<path d="M9006 7954 c-68 -58 -101 -102 -116 -154 -8 -27 -7 -30 15 -30 13 0
44 9 70 20 62 26 65 26 54 -12 -24 -84 1 -148 57 -148 22 0 24 3 18 23 -14 43
-5 97 27 158 19 36 29 63 23 69 -5 5 -34 10 -64 12 -39 3 -49 6 -35 11 70 28
92 59 65 93 -21 25 -47 16 -114 -42z"/>
<path d="M7513 7929 c-5 -5 -49 -27 -99 -49 -59 -26 -90 -45 -92 -57 -4 -30
35 -81 92 -119 88 -58 117 -27 46 50 -22 24 -40 48 -40 54 0 7 19 24 43 38 47
29 87 64 87 75 0 12 -27 18 -37 8z"/>
<path d="M7383 7555 c-74 -21 -136 -52 -166 -83 -40 -43 -82 -221 -55 -238 7
-5 69 -9 138 -10 135 -2 226 -16 448 -70 79 -18 154 -34 167 -34 56 0 69 61
38 172 -30 104 -137 202 -269 249 -78 27 -229 35 -301 14z m230 -74 c92 -24
125 -41 179 -89 65 -59 118 -193 70 -178 -40 13 -225 45 -407 71 -104 15 -192
29 -193 30 -9 8 31 117 51 140 40 46 175 57 300 26z"/>
<path d="M7705 3886 c-32 -48 8 -90 98 -102 50 -7 110 14 127 45 12 23 11 24
-43 21 -44 -2 -101 15 -139 42 -27 19 -27 19 -43 -6z"/>
<path d="M10217 10943 c-8 -13 -55 -320 -71 -463 -24 -206 -36 -422 -36 -629
l0 -187 -84 -58 c-98 -66 -206 -166 -206 -190 0 -39 32 -27 86 32 73 81 214
176 214 144 0 -5 12 -14 26 -21 34 -15 54 0 54 43 1 29 6 34 78 68 102 48 203
126 397 303 201 185 265 233 392 295 91 46 113 63 113 90 0 12 -61 -10 -140
-50 -90 -45 -172 -110 -347 -272 -84 -78 -179 -161 -210 -185 -63 -48 -219
-127 -269 -138 -29 -6 -32 -4 -38 26 -14 72 -1 411 24 629 24 207 61 492 66
505 11 26 -5 65 -26 65 -10 0 -21 -3 -23 -7z"/>
<path d="M9379 10753 c0 -10 -2 -29 -4 -43 -2 -14 -11 -99 -20 -190 -15 -153
-46 -391 -64 -485 -7 -38 -7 -35 -14 35 -8 89 -33 197 -87 375 -21 72 -41 143
-45 158 -4 22 -11 28 -27 25 -45 -7 -44 -29 10 -166 61 -152 87 -255 103 -407
15 -138 5 -399 -17 -472 -18 -56 -10 -106 18 -111 39 -7 77 194 118 623 22
223 52 427 76 504 20 66 18 134 -4 154 -24 22 -42 22 -43 0z"/>
<path d="M9687 10733 c-13 -21 -37 -158 -42 -238 -3 -49 -8 -227 -10 -395 -3
-235 -7 -323 -20 -385 -30 -141 -30 -145 -7 -145 16 0 23 12 37 73 9 39 19 81
21 92 3 11 9 178 14 370 7 299 11 364 30 449 24 113 24 179 -2 184 -9 2 -18
-1 -21 -5z"/>
<path d="M9917 10650 c-21 -17 -25 -30 -30 -107 -4 -48 -11 -137 -17 -198 -19
-207 -39 -450 -45 -557 -6 -89 -4 -108 7 -108 35 0 48 27 73 150 74 362 81
410 63 410 -28 0 -41 -21 -49 -75 -4 -32 -12 -62 -16 -66 -22 -22 15 287 52
440 13 52 21 100 18 107 -8 22 -31 23 -56 4z"/>
<path d="M9021 10578 c-57 -146 -72 -418 -30 -581 12 -49 19 -56 38 -33 8 10
7 24 -4 56 -21 60 -19 204 5 328 21 106 25 202 10 237 -7 19 -9 18 -19 -7z"/>
<path d="M9472 10227 c-6 -7 -19 -42 -28 -78 -15 -56 -15 -78 -5 -179 7 -63
18 -151 25 -195 13 -80 13 -80 20 -37 4 23 5 100 1 170 -6 129 -1 170 36 260
10 24 11 37 3 50 -14 22 -38 26 -52 9z"/>
<path d="M11155 10113 c-120 -114 -268 -247 -389 -348 -238 -197 -305 -253
-389 -320 -71 -57 -87 -75 -87 -97 0 -43 34 -35 88 20 76 78 491 440 745 651
118 97 148 127 145 144 -6 39 -32 28 -113 -50z"/>
<path d="M14801 10154 c-4 -177 -168 -305 -447 -349 -142 -23 -159 -30 -241
-106 -175 -163 -386 -193 -600 -87 -88 44 -110 29 -112 -82 -1 -53 -23 -90
-54 -90 -38 0 -125 47 -220 119 -101 76 -156 107 -204 117 -26 5 -33 2 -43
-16 -23 -43 -6 -105 52 -193 65 -99 78 -127 78 -172 l0 -35 -112 0 c-116 0
-230 16 -355 49 l-71 18 -12 -22 c-7 -13 -18 -49 -24 -81 -14 -68 -15 -68
-139 -54 -145 17 -284 76 -380 161 l-49 42 -25 -25 c-32 -33 -25 -46 61 -121
72 -64 87 -98 62 -144 -23 -46 -102 -112 -174 -146 -59 -28 -77 -32 -152 -32
-58 0 -95 5 -116 16 -29 15 -32 15 -55 -4 -81 -65 -213 -97 -323 -78 -36 6
-73 14 -81 17 -11 5 -15 -1 -15 -20 0 -59 -52 -117 -116 -129 -51 -10 -104 11
-150 59 -24 24 -48 44 -53 44 -6 0 -18 -11 -27 -25 -15 -22 -15 -27 0 -56 16
-32 15 -34 -11 -72 -31 -45 -85 -82 -150 -104 -70 -24 -203 -13 -276 22 -61
29 -143 110 -153 151 -7 26 -12 28 -33 15 -26 -17 -4 -76 50 -135 154 -169
414 -164 578 9 52 55 53 55 89 45 85 -23 192 3 253 64 30 29 42 34 105 40 39
3 109 17 155 30 139 39 175 46 241 46 127 0 306 60 391 130 47 40 79 102 81
157 0 24 4 43 7 43 4 0 40 -7 80 -15 94 -19 346 -46 365 -38 14 5 18 15 29 85
3 20 11 38 18 41 7 3 71 -4 142 -14 227 -32 394 -22 396 25 3 57 -7 90 -57
199 -31 65 -54 122 -52 127 5 15 98 -32 186 -94 98 -69 155 -95 205 -96 58 0
73 13 103 91 24 61 30 70 48 64 146 -43 283 -48 401 -16 88 24 113 38 229 124
107 79 137 93 236 110 155 27 329 110 396 190 56 66 76 148 54 217 -7 22 -8
19 -9 -16z"/>
<path d="M10861 9959 c-82 -101 -268 -236 -536 -387 -88 -50 -170 -98 -182
-107 -29 -20 -29 -46 -2 -71 18 -16 23 -17 44 -4 49 30 416 292 506 362 98 75
239 205 239 219 0 5 -8 13 -19 18 -15 9 -24 3 -50 -30z"/>
<path d="M11145 9839 c-22 -22 -111 -93 -198 -157 -88 -64 -188 -141 -224
-170 -84 -68 -136 -98 -196 -113 -43 -10 -56 -21 -116 -93 -37 -44 -94 -119
-127 -166 -141 -205 -264 -349 -344 -405 -52 -36 -52 -68 -2 -73 42 -4 69 24
245 258 220 294 265 353 300 394 l34 40 19 -22 c10 -12 24 -22 30 -22 7 0 36
25 66 56 69 73 259 226 421 338 134 93 157 116 157 153 0 34 -21 28 -65 -18z"/>
<path d="M9079 9568 c-13 -23 -13 -50 -9 -311 2 -141 4 -158 18 -155 15 3 18
26 23 178 3 96 11 196 18 221 10 35 10 52 2 68 -15 27 -37 27 -52 -1z"/>
<path d="M9398 9378 c-9 -16 -13 -68 -13 -163 -1 -138 -1 -142 -44 -270 -68
-207 -66 -303 7 -385 l38 -43 27 37 c96 125 146 346 117 514 -12 71 -13 73
-37 67 -52 -13 -65 36 -42 159 9 48 8 61 -6 82 -19 30 -31 30 -47 2z m31 -486
c-14 -119 -15 -157 -5 -204 7 -30 4 -40 -15 -59 l-22 -22 -19 37 c-41 81 -36
155 25 318 30 81 32 85 40 57 4 -16 2 -73 -4 -127z"/>
<path d="M10020 9320 c-51 -27 -128 -112 -156 -175 -14 -30 -34 -94 -46 -142
-27 -117 -26 -115 -38 -108 -18 11 -40 77 -40 121 0 62 34 144 82 199 33 37
39 51 31 64 -30 48 -72 11 -135 -124 -28 -60 -32 -81 -33 -150 0 -75 3 -85 45
-170 46 -91 72 -114 97 -83 6 7 18 70 27 139 19 145 37 215 67 253 12 15 23
25 25 24 2 -2 -8 -39 -21 -81 -30 -94 -31 -128 -5 -152 18 -17 19 -16 25 11
31 145 53 197 117 278 49 61 57 83 36 104 -16 16 -37 14 -78 -8z"/>
<path d="M10222 9254 c-6 -10 -61 -82 -122 -159 -131 -164 -140 -179 -118
-202 25 -24 40 -12 86 73 24 44 72 113 108 154 68 78 82 107 66 136 -9 16 -10
16 -20 -2z"/>
<path d="M9710 8621 c-8 -16 -7 -36 6 -83 10 -36 17 -103 18 -158 1 -83 -4
-111 -38 -225 -45 -148 -50 -222 -21 -298 20 -52 38 -67 82 -67 67 0 115 105
132 290 16 173 20 295 11 310 -8 12 -37 11 -86 -5 -18 -6 -22 -2 -28 25 -3 18
-6 65 -6 104 0 75 -15 119 -42 124 -9 2 -22 -6 -28 -17z m140 -423 c20 -109
-11 -247 -68 -302 -36 -33 -47 -23 -62 53 -12 62 0 130 51 292 l32 104 18 -42
c10 -24 23 -71 29 -105z"/>
<path d="M9457 8088 c-5 -368 -15 -476 -57 -625 -23 -84 -26 -142 -7 -168 21
-28 34 -11 40 52 3 32 17 139 31 238 36 260 45 384 46 615 1 113 1 213 1 223
-1 11 -9 17 -25 17 l-24 0 -5 -352z"/>
<path d="M9531 6941 c-11 -7 -12 -43 -9 -182 4 -144 9 -186 27 -243 15 -46 25
-109 30 -195 6 -92 13 -138 28 -171 24 -53 54 -83 80 -78 30 5 26 33 -11 90
-30 45 -37 66 -46 143 -5 50 -10 169 -10 265 0 315 -24 412 -89 371z"/>
<path d="M9701 5881 c-18 -33 -13 -46 58 -153 97 -144 217 -286 303 -357 84
-70 111 -76 127 -30 6 18 11 33 11 35 0 2 -27 17 -59 34 -88 44 -170 118 -248
222 -90 119 -116 162 -135 218 -16 49 -41 63 -57 31z"/>
<path d="M8860 5575 c-12 -32 -27 -133 -35 -243 -7 -84 -11 -103 -59 -237 -21
-59 -23 -72 -11 -84 21 -21 32 -7 58 77 44 140 56 186 77 301 26 148 26 187 0
201 -17 9 -22 7 -30 -15z"/>
</g>
</svg>
